<svg width="131" height="24" viewBox="0 0 131 24" fill="none" xmlns="http://www.w3.org/2000/svg">
<path d="M0.672 23V22.296L1.312 22.104C1.71733 21.976 1.99467 21.7733 2.144 21.496C2.29333 21.1973 2.368 20.8133 2.368 20.344V4.504C2.368 4.07733 2.31467 3.736 2.208 3.48C2.10133 3.20267 1.83467 2.98933 1.408 2.84L0.672 2.552V1.848H6.784L12.8 17.496L18.464 1.848H24.704V2.552L24.192 2.712C23.7867 2.84 23.5093 3.04267 23.36 3.32C23.2107 3.576 23.136 3.91733 23.136 4.344C23.1147 5.58133 23.104 6.81867 23.104 8.056C23.104 9.272 23.104 10.5093 23.104 11.768V13.08C23.104 14.3173 23.104 15.5547 23.104 16.792C23.104 18.0293 23.1147 19.256 23.136 20.472C23.136 20.92 23.1893 21.2613 23.296 21.496C23.4027 21.7307 23.6587 21.9227 24.064 22.072L24.704 22.296V23H16.928V22.296L17.632 22.072C18.0373 21.9227 18.2827 21.7307 18.368 21.496C18.4747 21.24 18.528 20.8987 18.528 20.472V13.528L18.592 4.952L12.064 23H10.272L3.392 5.144L3.52 12.44V20.376C3.52 20.8453 3.584 21.2187 3.712 21.496C3.84 21.7733 4.10667 21.9653 4.512 22.072L5.152 22.296V23H0.672ZM33.297 7.16C34.641 7.16 35.793 7.43733 36.753 7.992C37.713 8.54667 38.449 9.31467 38.961 10.296C39.4943 11.256 39.761 12.3653 39.761 13.624C39.761 13.9013 39.7503 14.168 39.729 14.424C39.7077 14.6587 39.665 14.8827 39.601 15.096H29.969C29.9903 17.2933 30.3957 18.872 31.185 19.832C31.9957 20.792 33.169 21.272 34.705 21.272C35.7717 21.272 36.6357 21.1013 37.297 20.76C37.9583 20.3973 38.5663 19.896 39.121 19.256L39.633 19.736C38.993 20.9093 38.1183 21.8267 37.009 22.488C35.921 23.128 34.6197 23.448 33.105 23.448C31.5903 23.448 30.257 23.128 29.105 22.488C27.953 21.848 27.0463 20.9307 26.385 19.736C25.745 18.52 25.425 17.0693 25.425 15.384C25.425 13.6347 25.7983 12.152 26.545 10.936C27.313 9.72 28.2943 8.792 29.489 8.152C30.705 7.49067 31.9743 7.16 33.297 7.16ZM33.137 8.088C32.5183 8.088 31.9743 8.26933 31.505 8.632C31.057 8.97333 30.6943 9.592 30.417 10.488C30.161 11.3627 30.0117 12.6 29.969 14.2H35.697C35.9317 12.0453 35.8463 10.488 35.441 9.528C35.0357 8.568 34.2677 8.088 33.137 8.088ZM48.1108 23.448C46.8521 23.448 45.7214 23.1707 44.7188 22.616C43.7161 22.04 42.9268 21.1653 42.3508 19.992C41.7961 18.7973 41.5188 17.2827 41.5188 15.448C41.5188 13.6133 41.8388 12.088 42.4788 10.872C43.1188 9.63467 43.9721 8.70667 45.0388 8.088C46.1054 7.46933 47.2788 7.16 48.5588 7.16C49.3268 7.16 50.0628 7.256 50.7668 7.448C51.4708 7.61867 52.0894 7.88533 52.6228 8.248V4.088C52.6228 3.64 52.5481 3.32 52.3988 3.128C52.2708 2.91467 51.9934 2.75467 51.5668 2.648L50.9268 2.52V1.912L56.4948 0.535999L56.9108 0.823999L56.7828 5.336V20.728C56.7828 21.1333 56.8574 21.4747 57.0068 21.752C57.1561 22.008 57.4228 22.1893 57.8068 22.296L58.1588 22.392V23L52.8468 23.352L52.5588 22.008C51.9828 22.456 51.3214 22.808 50.5748 23.064C49.8281 23.32 49.0068 23.448 48.1108 23.448ZM49.8708 21.976C50.7881 21.976 51.6521 21.6773 52.4628 21.08V9.176C51.6734 8.68533 50.8201 8.44 49.9028 8.44C48.8574 8.44 47.9614 8.99467 47.2148 10.104C46.4681 11.192 46.0948 12.952 46.0948 15.384C46.0948 17.816 46.4468 19.5227 47.1508 20.504C47.8548 21.4853 48.7614 21.976 49.8708 21.976ZM63.3215 5.4C62.6175 5.4 62.0202 5.176 61.5295 4.728C61.0388 4.28 60.7935 3.71467 60.7935 3.032C60.7935 2.328 61.0388 1.76267 61.5295 1.336C62.0202 0.887999 62.6175 0.664 63.3215 0.664C64.0255 0.664 64.6228 0.887999 65.1135 1.336C65.6042 1.76267 65.8495 2.328 65.8495 3.032C65.8495 3.71467 65.6042 4.28 65.1135 4.728C64.6228 5.176 64.0255 5.4 63.3215 5.4ZM59.6415 23V22.392L60.1215 22.264C60.5482 22.136 60.8362 21.944 60.9855 21.688C61.1348 21.432 61.2202 21.0907 61.2415 20.664V14.776C61.2415 14.1147 61.2415 13.5067 61.2415 12.952C61.2415 12.376 61.2308 11.7893 61.2095 11.192C61.2095 10.7653 61.1242 10.4347 60.9535 10.2C60.8042 9.944 60.5162 9.77333 60.0895 9.688L59.6415 9.592V9.016L65.2415 7.16L65.6255 7.512L65.5295 12.056V20.696C65.5295 21.1227 65.6042 21.464 65.7535 21.72C65.9242 21.976 66.2122 22.168 66.6175 22.296L66.9695 22.392V23H59.6415ZM75.1503 23.096L69.5182 9.56C69.2836 8.96267 68.8676 8.57867 68.2703 8.408L67.5983 8.248V7.64H75.6943V8.248L74.8623 8.44C74.1796 8.61067 73.9769 9.048 74.2543 9.752L77.6143 18.68L80.7503 9.816C80.8569 9.45333 80.8783 9.16533 80.8143 8.952C80.7716 8.71733 80.5689 8.55733 80.2063 8.472L79.2783 8.248V7.64H84.1423V8.248L83.0863 8.504C82.4676 8.65333 82.0516 9.03733 81.8383 9.656L77.0063 23.096H75.1503ZM92.172 23.448C90.5933 23.448 89.2067 23.1173 88.012 22.456C86.8387 21.7947 85.9213 20.856 85.26 19.64C84.62 18.424 84.3 16.9733 84.3 15.288C84.3 13.6027 84.6413 12.152 85.324 10.936C86.028 9.72 86.9667 8.792 88.14 8.152C89.3347 7.49067 90.6787 7.16 92.172 7.16C93.6653 7.16 94.9987 7.49067 96.172 8.152C97.3667 8.792 98.3053 9.72 98.988 10.936C99.692 12.1307 100.044 13.5813 100.044 15.288C100.044 16.9733 99.7133 18.4347 99.052 19.672C98.412 20.888 97.5053 21.8267 96.332 22.488C95.1587 23.128 93.772 23.448 92.172 23.448ZM92.172 22.552C92.94 22.552 93.5587 22.3493 94.028 21.944C94.5187 21.5173 94.8707 20.7813 95.084 19.736C95.2973 18.6907 95.404 17.2293 95.404 15.352C95.404 13.4533 95.2973 11.9813 95.084 10.936C94.8707 9.86933 94.5187 9.13333 94.028 8.728C93.5587 8.30133 92.94 8.088 92.172 8.088C91.404 8.088 90.7853 8.30133 90.316 8.728C89.8467 9.13333 89.4947 9.86933 89.26 10.936C89.0467 11.9813 88.94 13.4533 88.94 15.352C88.94 17.2293 89.0467 18.6907 89.26 19.736C89.4947 20.7813 89.8467 21.5173 90.316 21.944C90.7853 22.3493 91.404 22.552 92.172 22.552ZM101.516 23V22.392L101.996 22.232C102.422 22.1253 102.71 21.944 102.86 21.688C103.03 21.432 103.116 21.0907 103.116 20.664V11.288C103.094 10.8187 103.009 10.4667 102.86 10.232C102.71 9.976 102.422 9.80533 101.996 9.72L101.516 9.592V9.016L106.732 7.16L107.116 7.512L107.404 10.328V10.552C107.724 9.95467 108.129 9.4 108.62 8.888C109.11 8.376 109.644 7.96 110.22 7.64C110.796 7.32 111.372 7.16 111.948 7.16C112.758 7.16 113.366 7.37333 113.772 7.8C114.177 8.22667 114.38 8.77067 114.38 9.432C114.38 10.1573 114.177 10.712 113.772 11.096C113.366 11.4587 112.876 11.64 112.3 11.64C111.446 11.64 110.71 11.256 110.092 10.488L110.028 10.424C109.814 10.168 109.569 10.0293 109.292 10.008C109.036 9.96533 108.78 10.0933 108.524 10.392C108.31 10.6053 108.108 10.8613 107.916 11.16C107.745 11.4373 107.585 11.768 107.436 12.152V20.536C107.436 20.9413 107.521 21.2827 107.692 21.56C107.862 21.816 108.15 21.9973 108.556 22.104L109.516 22.392V23H101.516ZM119.437 23.448C118.221 23.448 117.186 23.1067 116.333 22.424C115.501 21.72 115.085 20.7173 115.085 19.416C115.085 18.392 115.576 17.4533 116.557 16.6C117.56 15.7253 119.128 15.0853 121.261 14.68C121.624 14.5947 122.04 14.52 122.509 14.456C123 14.3707 123.48 14.2853 123.949 14.2V11.928C123.949 10.4773 123.768 9.47467 123.405 8.92C123.042 8.36533 122.466 8.088 121.677 8.088H121.581C121.09 8.088 120.696 8.248 120.397 8.568C120.12 8.86667 119.938 9.368 119.853 10.072L119.757 10.488C119.693 11.3413 119.469 11.9707 119.085 12.376C118.701 12.76 118.221 12.952 117.645 12.952C117.112 12.952 116.664 12.792 116.301 12.472C115.96 12.1307 115.789 11.6933 115.789 11.16C115.789 10.2853 116.088 9.54933 116.685 8.952C117.282 8.35467 118.072 7.90667 119.053 7.608C120.056 7.30933 121.133 7.16 122.285 7.16C124.184 7.16 125.634 7.61867 126.637 8.536C127.64 9.45333 128.141 10.9467 128.141 13.016V20.152C128.141 21.0693 128.578 21.528 129.453 21.528H130.189L130.509 21.88C130.125 22.3707 129.698 22.744 129.229 23C128.76 23.2773 128.12 23.416 127.309 23.416C126.392 23.416 125.656 23.2027 125.101 22.776C124.568 22.328 124.216 21.7413 124.045 21.016C123.362 21.7413 122.69 22.328 122.029 22.776C121.368 23.224 120.504 23.448 119.437 23.448ZM121.293 21.4C121.72 21.4 122.125 21.304 122.509 21.112C122.893 20.92 123.373 20.6 123.949 20.152V15.032C123.394 15.1173 122.829 15.224 122.253 15.352C121.336 15.5653 120.589 15.96 120.013 16.536C119.458 17.112 119.181 17.8907 119.181 18.872C119.181 19.7253 119.373 20.3653 119.757 20.792C120.162 21.1973 120.674 21.4 121.293 21.4Z" fill="white"/>
</svg>
