<svg width="346" height="62" viewBox="0 0 346 62" fill="none" xmlns="http://www.w3.org/2000/svg">
<path d="M0.785 60V58.13L2.485 57.62C3.56167 57.28 4.29833 56.7417 4.695 56.005C5.09167 55.2117 5.29 54.1917 5.29 52.945V10.87C5.29 9.73666 5.14833 8.83 4.865 8.15C4.58167 7.41333 3.87333 6.84666 2.74 6.45L0.785 5.685V3.815H17.02L33 45.38L48.045 3.815H64.62V5.685L63.26 6.11C62.1833 6.45 61.4467 6.98833 61.05 7.725C60.6533 8.405 60.455 9.31166 60.455 10.445C60.3983 13.7317 60.37 17.0183 60.37 20.305C60.37 23.535 60.37 26.8217 60.37 30.165V33.65C60.37 36.9367 60.37 40.2233 60.37 43.51C60.37 46.7967 60.3983 50.055 60.455 53.285C60.455 54.475 60.5967 55.3817 60.88 56.005C61.1633 56.6283 61.8433 57.1383 62.92 57.535L64.62 58.13V60H43.965V58.13L45.835 57.535C46.9117 57.1383 47.5633 56.6283 47.79 56.005C48.0733 55.325 48.215 54.4183 48.215 53.285V34.84L48.385 12.06L31.045 60H26.285L8.01 12.57L8.35 31.95V53.03C8.35 54.2767 8.52 55.2683 8.86 56.005C9.2 56.7417 9.90833 57.2517 10.985 57.535L12.685 58.13V60H0.785ZM87.4452 17.925C91.0152 17.925 94.0752 18.6617 96.6252 20.135C99.1752 21.6083 101.13 23.6483 102.49 26.255C103.907 28.805 104.615 31.7517 104.615 35.095C104.615 35.8317 104.587 36.54 104.53 37.22C104.473 37.8433 104.36 38.4383 104.19 39.005H78.6052C78.6618 44.8417 79.7385 49.035 81.8352 51.585C83.9885 54.135 87.1052 55.41 91.1852 55.41C94.0185 55.41 96.3135 54.9567 98.0702 54.05C99.8268 53.0867 101.442 51.755 102.915 50.055L104.275 51.33C102.575 54.4467 100.252 56.8833 97.3052 58.64C94.4152 60.34 90.9585 61.19 86.9352 61.19C82.9118 61.19 79.3702 60.34 76.3102 58.64C73.2502 56.94 70.8418 54.5033 69.0852 51.33C67.3852 48.1 66.5352 44.2467 66.5352 39.77C66.5352 35.1233 67.5268 31.185 69.5102 27.955C71.5502 24.725 74.1568 22.26 77.3302 20.56C80.5602 18.8033 83.9318 17.925 87.4452 17.925ZM87.0202 20.39C85.3768 20.39 83.9318 20.8717 82.6852 21.835C81.4952 22.7417 80.5318 24.385 79.7952 26.765C79.1152 29.0883 78.7185 32.375 78.6052 36.625H93.8202C94.4435 30.9017 94.2168 26.765 93.1402 24.215C92.0635 21.665 90.0235 20.39 87.0202 20.39ZM126.794 61.19C123.451 61.19 120.448 60.4533 117.784 58.98C115.121 57.45 113.024 55.1267 111.494 52.01C110.021 48.8367 109.284 44.8133 109.284 39.94C109.284 35.0667 110.134 31.015 111.834 27.785C113.534 24.4983 115.801 22.0333 118.634 20.39C121.468 18.7467 124.584 17.925 127.984 17.925C130.024 17.925 131.979 18.18 133.849 18.69C135.719 19.1433 137.363 19.8517 138.779 20.815V9.765C138.779 8.575 138.581 7.725 138.184 7.215C137.844 6.64833 137.108 6.22333 135.974 5.94L134.274 5.6V3.985L149.064 0.329998L150.169 1.095L149.829 13.08V53.965C149.829 55.0417 150.028 55.9483 150.424 56.685C150.821 57.365 151.529 57.8467 152.549 58.13L153.484 58.385V60L139.374 60.935L138.609 57.365C137.079 58.555 135.323 59.49 133.339 60.17C131.356 60.85 129.174 61.19 126.794 61.19ZM131.469 57.28C133.906 57.28 136.201 56.4867 138.354 54.9V23.28C136.258 21.9767 133.991 21.325 131.554 21.325C128.778 21.325 126.398 22.7983 124.414 25.745C122.431 28.635 121.439 33.31 121.439 39.77C121.439 46.23 122.374 50.7633 124.244 53.37C126.114 55.9767 128.523 57.28 131.469 57.28ZM167.198 13.25C165.328 13.25 163.741 12.655 162.438 11.465C161.134 10.275 160.483 8.77333 160.483 6.96C160.483 5.09 161.134 3.58833 162.438 2.455C163.741 1.265 165.328 0.669999 167.198 0.669999C169.068 0.669999 170.654 1.265 171.958 2.455C173.261 3.58833 173.913 5.09 173.913 6.96C173.913 8.77333 173.261 10.275 171.958 11.465C170.654 12.655 169.068 13.25 167.198 13.25ZM157.423 60V58.385L158.698 58.045C159.831 57.705 160.596 57.195 160.993 56.515C161.389 55.835 161.616 54.9283 161.673 53.795V38.155C161.673 36.3983 161.673 34.7833 161.673 33.31C161.673 31.78 161.644 30.2217 161.588 28.635C161.588 27.5017 161.361 26.6233 160.908 26C160.511 25.32 159.746 24.8667 158.613 24.64L157.423 24.385V22.855L172.298 17.925L173.318 18.86L173.063 30.93V53.88C173.063 55.0133 173.261 55.92 173.658 56.6C174.111 57.28 174.876 57.79 175.953 58.13L176.888 58.385V60H157.423ZM198.618 60.255L183.658 24.3C183.035 22.7133 181.93 21.6933 180.343 21.24L178.558 20.815V19.2H200.063V20.815L197.853 21.325C196.04 21.7783 195.501 22.94 196.238 24.81L205.163 48.525L213.493 24.98C213.776 24.0167 213.833 23.2517 213.663 22.685C213.55 22.0617 213.011 21.6367 212.048 21.41L209.583 20.815V19.2H222.503V20.815L219.698 21.495C218.055 21.8917 216.95 22.9117 216.383 24.555L203.548 60.255H198.618ZM243.832 61.19C239.639 61.19 235.955 60.3117 232.782 58.555C229.665 56.7983 227.229 54.305 225.472 51.075C223.772 47.845 222.922 43.9917 222.922 39.515C222.922 35.0383 223.829 31.185 225.642 27.955C227.512 24.725 230.005 22.26 233.122 20.56C236.295 18.8033 239.865 17.925 243.832 17.925C247.799 17.925 251.34 18.8033 254.457 20.56C257.63 22.26 260.124 24.725 261.937 27.955C263.807 31.1283 264.742 34.9817 264.742 39.515C264.742 43.9917 263.864 47.8733 262.107 51.16C260.407 54.39 257.999 56.8833 254.882 58.64C251.765 60.34 248.082 61.19 243.832 61.19ZM243.832 58.81C245.872 58.81 247.515 58.2717 248.762 57.195C250.065 56.0617 251 54.1067 251.567 51.33C252.134 48.5533 252.417 44.6717 252.417 39.685C252.417 34.6417 252.134 30.7317 251.567 27.955C251 25.1217 250.065 23.1667 248.762 22.09C247.515 20.9567 245.872 20.39 243.832 20.39C241.792 20.39 240.149 20.9567 238.902 22.09C237.655 23.1667 236.72 25.1217 236.097 27.955C235.53 30.7317 235.247 34.6417 235.247 39.685C235.247 44.6717 235.53 48.5533 236.097 51.33C236.72 54.1067 237.655 56.0617 238.902 57.195C240.149 58.2717 241.792 58.81 243.832 58.81ZM268.651 60V58.385L269.926 57.96C271.06 57.6767 271.825 57.195 272.221 56.515C272.675 55.835 272.901 54.9283 272.901 53.795V28.89C272.845 27.6433 272.618 26.7083 272.221 26.085C271.825 25.405 271.06 24.9517 269.926 24.725L268.651 24.385V22.855L282.506 17.925L283.526 18.86L284.291 26.34V26.935C285.141 25.3483 286.218 23.875 287.521 22.515C288.825 21.155 290.241 20.05 291.771 19.2C293.301 18.35 294.831 17.925 296.361 17.925C298.515 17.925 300.13 18.4917 301.206 19.625C302.283 20.7583 302.821 22.2033 302.821 23.96C302.821 25.8867 302.283 27.36 301.206 28.38C300.13 29.3433 298.826 29.825 297.296 29.825C295.03 29.825 293.075 28.805 291.431 26.765L291.261 26.595C290.695 25.915 290.043 25.5467 289.306 25.49C288.626 25.3767 287.946 25.7167 287.266 26.51C286.7 27.0767 286.161 27.7567 285.651 28.55C285.198 29.2867 284.773 30.165 284.376 31.185V53.455C284.376 54.5317 284.603 55.4383 285.056 56.175C285.51 56.855 286.275 57.3367 287.351 57.62L289.901 58.385V60H268.651ZM316.255 61.19C313.025 61.19 310.276 60.2833 308.01 58.47C305.8 56.6 304.695 53.9367 304.695 50.48C304.695 47.76 305.998 45.2667 308.605 43C311.268 40.6767 315.433 38.9767 321.1 37.9C322.063 37.6733 323.168 37.475 324.415 37.305C325.718 37.0783 326.993 36.8517 328.24 36.625V30.59C328.24 26.7367 327.758 24.0733 326.795 22.6C325.831 21.1267 324.301 20.39 322.205 20.39H321.95C320.646 20.39 319.598 20.815 318.805 21.665C318.068 22.4583 317.586 23.79 317.36 25.66L317.105 26.765C316.935 29.0317 316.34 30.7033 315.32 31.78C314.3 32.8 313.025 33.31 311.495 33.31C310.078 33.31 308.888 32.885 307.925 32.035C307.018 31.1283 306.565 29.9667 306.565 28.55C306.565 26.2267 307.358 24.2717 308.945 22.685C310.531 21.0983 312.628 19.9083 315.235 19.115C317.898 18.3217 320.76 17.925 323.82 17.925C328.863 17.925 332.716 19.1433 335.38 21.58C338.043 24.0167 339.375 27.9833 339.375 33.48V52.435C339.375 54.8717 340.536 56.09 342.86 56.09H344.815L345.665 57.025C344.645 58.3283 343.511 59.32 342.265 60C341.018 60.7367 339.318 61.105 337.165 61.105C334.728 61.105 332.773 60.5383 331.3 59.405C329.883 58.215 328.948 56.6567 328.495 54.73C326.681 56.6567 324.896 58.215 323.14 59.405C321.383 60.595 319.088 61.19 316.255 61.19ZM321.185 55.75C322.318 55.75 323.395 55.495 324.415 54.985C325.435 54.475 326.71 53.625 328.24 52.435V38.835C326.766 39.0617 325.265 39.345 323.735 39.685C321.298 40.2517 319.315 41.3 317.785 42.83C316.311 44.36 315.575 46.4283 315.575 49.035C315.575 51.3017 316.085 53.0017 317.105 54.135C318.181 55.2117 319.541 55.75 321.185 55.75Z" fill="black"/>
</svg>
