<svg width="62" height="63" viewBox="0 0 62 63" fill="none" xmlns="http://www.w3.org/2000/svg">
<g clip-path="url(#clip0_785_6025)">
<path d="M23.4802 55.4604H16.9902C16.4402 55.4604 15.9902 55.9104 15.9902 56.4604C15.9902 57.0104 16.4402 57.4604 16.9902 57.4604H23.4802C24.0302 57.4604 24.4802 57.0104 24.4802 56.4604C24.4802 55.9104 24.0302 55.4604 23.4802 55.4604Z" fill="#3182CE"/>
<path d="M42.8699 34.3207C41.3299 34.3507 40.1499 35.3407 39.8499 36.8407C39.7399 37.3807 40.0999 37.9107 40.6399 38.0107C41.1799 38.1107 41.7099 37.7607 41.8099 37.2207C41.9599 36.4507 42.5599 36.3207 42.9099 36.3207C43.4599 36.3207 44.1099 36.6007 44.2699 37.2507C44.5299 38.3607 43.6299 39.2007 42.1299 40.4607C41.3699 41.0907 40.5899 41.7507 40.0199 42.5207C39.7999 42.8207 39.7699 43.2307 39.9399 43.5607C40.1099 43.8907 40.4499 44.1107 40.8299 44.1107H45.8599C46.4099 44.1107 46.8599 43.6607 46.8599 43.1107C46.8599 42.5607 46.4099 42.1107 45.8599 42.1107H43.2699C43.2699 42.1107 43.3599 42.0307 43.4099 41.9907C44.9099 40.7407 46.7699 39.1907 46.2099 36.7907C45.8499 35.3007 44.4899 34.2807 42.8599 34.3107L42.8699 34.3207Z" fill="#3182CE"/>
<path d="M47.9103 41.2906H50.9003V43.1106C50.9003 43.6606 51.3503 44.1106 51.9003 44.1106C52.4503 44.1106 52.9003 43.6606 52.9003 43.1106V41.2906H53.1903C53.7403 41.2906 54.1903 40.8406 54.1903 40.2906C54.1903 39.7406 53.7403 39.2906 53.1903 39.2906H52.9003V34.4306C52.9003 33.9906 52.6103 33.6006 52.1903 33.4706C51.7703 33.3406 51.3203 33.5006 51.0703 33.8606L47.0803 39.7206C46.8703 40.0306 46.8503 40.4206 47.0203 40.7506C47.1903 41.0806 47.5303 41.2806 47.9003 41.2806L47.9103 41.2906ZM50.9003 37.6806V39.3006H49.8003L50.9003 37.6806Z" fill="#3182CE"/>
<path d="M47.14 24.6205C44.74 24.6205 42.48 25.2105 40.48 26.2305V7.26053C40.48 3.55053 37.46 0.540527 33.76 0.540527H6.72C3.01 0.540527 0 3.56053 0 7.26053V55.8105C0 59.5205 3.01 62.5405 6.72 62.5405H33.75C37.46 62.5405 40.47 59.5205 40.47 55.8105V52.5205C42.47 53.5405 44.73 54.1305 47.13 54.1305C55.26 54.1305 61.88 47.5105 61.88 39.3805C61.88 31.2505 55.26 24.6305 47.13 24.6305L47.14 24.6205ZM47.14 29.5305C47.69 29.5305 48.14 29.0805 48.14 28.5305V26.6805C50.86 26.8905 53.34 27.9505 55.32 29.6105L54.02 30.9305C53.63 31.3205 53.64 31.9605 54.03 32.3405C54.23 32.5305 54.48 32.6305 54.73 32.6305C54.98 32.6305 55.25 32.5305 55.44 32.3305L56.73 31.0105C58.48 33.0205 59.61 35.5705 59.84 38.3805H57.99C57.44 38.3805 56.99 38.8305 56.99 39.3805C56.99 39.9305 57.44 40.3805 57.99 40.3805H59.84C59.62 43.1905 58.49 45.7405 56.74 47.7505L55.45 46.4305C55.06 46.0305 54.43 46.0305 54.04 46.4205C53.65 46.8105 53.64 47.4405 54.03 47.8305L55.33 49.1505C53.35 50.8105 50.87 51.8705 48.15 52.0805V50.2305C48.15 49.6805 47.7 49.2305 47.15 49.2305C46.6 49.2305 46.15 49.6805 46.15 50.2305V52.0805C43.43 51.8705 40.95 50.8105 38.97 49.1505L40.27 47.8305C40.66 47.4405 40.65 46.8005 40.26 46.4205C39.86 46.0305 39.23 46.0405 38.84 46.4305L37.55 47.7505C35.8 45.7405 34.67 43.1905 34.45 40.3805H36.3C36.85 40.3805 37.3 39.9305 37.3 39.3805C37.3 38.8305 36.85 38.3805 36.3 38.3805H34.45C34.67 35.5705 35.81 33.0205 37.56 31.0205L38.85 32.3305C39.05 32.5305 39.31 32.6305 39.56 32.6305C39.81 32.6305 40.07 32.5305 40.26 32.3405C40.65 31.9505 40.66 31.3205 40.27 30.9305L38.98 29.6205C40.96 27.9705 43.43 26.8905 46.15 26.6805V28.5305C46.15 29.0805 46.6 29.5305 47.15 29.5305H47.14ZM28.04 2.54053L27.22 5.01053H13.26L12.44 2.54053H28.04ZM38.48 55.8105C38.48 58.4205 36.36 60.5405 33.76 60.5405H6.72C4.12 60.5405 2 58.4205 2 55.8105V7.26053C2 4.66053 4.12 2.54053 6.72 2.54053H10.33L11.59 6.33053C11.73 6.74053 12.11 7.01053 12.54 7.01053H27.94C28.37 7.01053 28.75 6.73053 28.89 6.33053L30.15 2.54053H33.76C36.36 2.54053 38.48 4.66053 38.48 7.26053V27.4605C34.8 30.1405 32.39 34.4805 32.39 39.3805C32.39 44.2805 34.8 48.6105 38.48 51.3005V55.8205V55.8105Z" fill="#3182CE"/>
<path d="M24.7103 21.8206H23.5103V20.6206C23.5103 19.6806 22.7503 18.9106 21.8003 18.9106H18.6503C17.7103 18.9106 16.9403 19.6806 16.9403 20.6206V21.8206H15.7403C14.8003 21.8206 14.0303 22.5806 14.0303 23.5306V26.6806C14.0303 27.6206 14.8003 28.3906 15.7403 28.3906H16.9403V29.5906C16.9403 30.5306 17.7003 31.3006 18.6503 31.3006H21.8003C22.7403 31.3006 23.5103 30.5306 23.5103 29.5906V28.3906H24.7103C25.6503 28.3906 26.4203 27.6206 26.4203 26.6806V23.5306C26.4203 22.5906 25.6503 21.8206 24.7103 21.8206ZM24.4203 26.3706H22.5203C21.9703 26.3706 21.5203 26.8206 21.5203 27.3706V29.2806H18.9603V27.3706C18.9603 26.8206 18.5103 26.3706 17.9603 26.3706H16.0503V23.8106H17.9603C18.5103 23.8106 18.9603 23.3606 18.9603 22.8106V20.9106H21.5203V22.8106C21.5203 23.3606 21.9703 23.8106 22.5203 23.8106H24.4203V26.3706Z" fill="#3182CE"/>
<path d="M20.2397 12.6304C13.7497 12.6304 8.46973 18.1104 8.46973 24.8504C8.46973 29.9304 10.2697 35.0004 19.4697 45.9104C19.6597 46.1404 19.9397 46.2604 20.2297 46.2604C20.5197 46.2604 20.7997 46.1304 20.9897 45.9104C30.1897 35.0004 31.9897 29.9304 31.9897 24.8504C31.9897 18.1104 26.7097 12.6304 20.2197 12.6304H20.2397ZM20.2397 43.7104C12.0897 33.9004 10.4697 29.3304 10.4697 24.8504C10.4697 19.2104 14.8497 14.6304 20.2397 14.6304C25.6297 14.6304 30.0097 19.2204 30.0097 24.8504C30.0097 29.3304 28.3897 33.9004 20.2397 43.7104Z" fill="#3182CE"/>
</g>
<defs>
<clipPath id="clip0_785_6025">
<rect width="61.89" height="62" fill="white" transform="translate(0 0.540527)"/>
</clipPath>
</defs>
</svg>
