<svg width="28" height="22" viewBox="0 0 28 22" fill="none" xmlns="http://www.w3.org/2000/svg">
<path d="M3.33366 21.9876C2.60033 21.9876 1.97255 21.7265 1.45033 21.2043C0.928103 20.6821 0.666992 20.0543 0.666992 19.321V3.32096C0.666992 2.58763 0.928103 1.95985 1.45033 1.43763C1.97255 0.915408 2.60033 0.654297 3.33366 0.654297H24.667C25.4003 0.654297 26.0281 0.915408 26.5503 1.43763C27.0725 1.95985 27.3337 2.58763 27.3337 3.32096V19.321C27.3337 20.0543 27.0725 20.6821 26.5503 21.2043C26.0281 21.7265 25.4003 21.9876 24.667 21.9876H3.33366ZM14.0003 12.421C14.1114 12.421 14.2281 12.4043 14.3503 12.371C14.4725 12.3376 14.5892 12.2876 14.7003 12.221L24.1337 6.32096C24.3114 6.20985 24.4448 6.07096 24.5337 5.9043C24.6225 5.73763 24.667 5.5543 24.667 5.3543C24.667 4.90985 24.4781 4.57652 24.1003 4.3543C23.7225 4.13207 23.3337 4.14319 22.9337 4.38763L14.0003 9.98763L5.06699 4.38763C4.66699 4.14319 4.2781 4.13763 3.90033 4.37096C3.52255 4.6043 3.33366 4.93207 3.33366 5.3543C3.33366 5.57652 3.3781 5.77096 3.46699 5.93763C3.55588 6.1043 3.68921 6.23207 3.86699 6.32096L13.3003 12.221C13.4114 12.2876 13.5281 12.3376 13.6503 12.371C13.7725 12.4043 13.8892 12.421 14.0003 12.421Z" fill="#171760"/>
</svg>
