<svg width="28" height="28" viewBox="0 0 28 28" fill="none" xmlns="http://www.w3.org/2000/svg">
<path d="M10.7054 8.13228C11.6505 7.1521 11.6581 5.96307 10.71 4.9905C9.55449 3.80451 8.37306 2.64143 7.20233 1.4707C6.92185 1.19326 6.5941 0.978326 6.21146 0.870072C5.36846 0.627696 4.6581 0.897511 4.05295 1.48287C3.38528 2.12615 2.76179 2.81825 2.07429 3.43866C1.12612 4.30145 0.688616 5.35483 0.735874 6.45544C0.735874 7.60635 0.923375 8.6216 1.30598 9.75269C2.31664 12.7344 3.91726 15.3714 5.90657 17.7925C8.89131 21.4175 12.5103 24.2116 16.8412 26.0622C18.1949 26.6399 19.6034 27.0225 21.0867 27.0805C22.2177 27.1231 23.2559 26.8579 24.0882 26.0469C24.8565 25.2969 25.6095 24.5286 26.3595 23.7603C26.7147 23.393 26.9647 22.9646 27.0303 22.4448C27.1278 21.6872 26.823 21.0789 26.3077 20.5606C25.4998 19.7451 24.6842 18.9372 23.8687 18.1262C23.4556 17.7161 23.0608 17.2832 22.6156 16.9158C21.7605 16.21 20.7223 16.2329 19.8718 16.9432C19.7071 17.0804 19.5593 17.2314 19.4068 17.3838C18.7864 18.0042 18.169 18.6247 17.5486 19.2451C17.4236 19.3701 17.2986 19.4829 17.1081 19.3777C16.5501 19.0774 15.9724 18.8121 15.4419 18.4722C13.3809 17.1536 11.6721 15.4478 10.1537 13.5391C9.51043 12.7312 8.94793 11.8684 8.52565 10.9202C8.34272 10.5071 8.34577 10.4903 8.66284 10.1748C9.34577 9.49643 10.0363 8.82112 10.7071 8.13058L10.7054 8.13228Z" fill="#171760"/>
</svg>
