<svg width="54" height="54" viewBox="0 0 54 54" fill="none" xmlns="http://www.w3.org/2000/svg">
<path d="M51.3002 20.9688C51.3002 27.6424 47.8169 39.1515 38.3986 43.6449C37.5143 44.0668 36.9609 42.9861 37.6973 42.343C44.128 36.7281 46.2979 30.911 40.5002 31.6775C34.5355 31.6775 29.7002 26.883 29.7002 20.9688C29.7002 15.0545 34.5355 10.26 40.5002 10.26C46.4649 10.26 51.3002 15.0545 51.3002 20.9688Z" fill="white"/>
<path d="M24.3002 20.9688C24.3002 27.6424 20.8169 39.1515 11.3986 43.6449C10.5143 44.0668 9.96087 42.9861 10.6973 42.343C17.128 36.7281 19.2979 30.911 13.5002 31.6775C7.53552 31.6775 2.7002 26.883 2.7002 20.9688C2.7002 15.0545 7.53552 10.26 13.5002 10.26C19.4649 10.26 24.3002 15.0545 24.3002 20.9688Z" fill="white"/>
</svg>
