<svg width="58" height="100" viewBox="0 0 58 100" fill="none" xmlns="http://www.w3.org/2000/svg">
<path d="M55.4877 63.9748C57.0971 62.6046 58 60.7426 58 58.8008V39.8195C58 35.8225 56.1452 31.9935 52.8478 29.1691C49.5504 26.3404 45.0753 24.7558 40.4139 24.7558H39.408C44.7024 20.9899 46.6751 14.7863 44.3394 9.24242C42.0086 3.69867 35.8652 0 28.9804 0C22.0955 0 15.9528 3.69867 13.6214 9.24242C11.2857 14.7862 13.2583 20.9899 18.5528 24.7558H17.5861C7.87545 24.7558 0 31.4975 0 39.8195V58.7459C0.00490654 62.7851 3.82737 66.0551 8.54285 66.0634H9.13167L2.1001 82.6658C1.89891 83.1617 1.98724 83.7081 2.33563 84.1368C2.68892 84.5697 3.26793 84.8261 3.88133 84.8261H13.3025V92.5008C13.2878 94.4889 14.1906 96.4055 15.8148 97.8261C17.4733 99.2173 19.7109 99.9906 22.0317 99.978C24.7354 99.9948 27.2968 98.9483 28.9798 97.1368C29.1908 97.3764 29.4214 97.6033 29.6716 97.8135C32.1839 99.9529 35.9524 100.587 39.2253 99.4275C42.5031 98.2633 44.6425 95.5354 44.6572 92.5009V84.8261H54.1028C54.7162 84.8261 55.2952 84.5697 55.6485 84.1368C55.9969 83.7081 56.0901 83.1617 55.889 82.6658L48.8525 66.0301H49.4413C51.6936 66.0595 53.8684 65.3198 55.4877 63.9748ZM16.4188 13.9634C16.4188 9.6132 19.4807 5.68761 24.1717 4.02318C28.8675 2.35876 34.27 3.27924 37.8612 6.3559C41.4531 9.43255 42.5276 14.0601 40.5846 18.0819C38.6414 22.1 34.0585 24.7227 28.9798 24.7227C22.0416 24.7227 16.4188 19.9064 16.4188 13.9634ZM27.1206 92.5096C27.1108 94.2455 25.889 95.8048 24.0145 96.4689C22.145 97.133 19.9909 96.7673 18.5531 95.5442C17.6208 94.7373 17.0958 93.6487 17.0958 92.5097V84.8265H27.145L27.1206 92.5096ZM40.9383 92.5096C40.9383 94.8885 38.6909 96.8136 35.9137 96.8136C33.1414 96.8136 30.8891 94.8885 30.8891 92.5096V84.8265H40.9383V92.5096ZM51.4537 81.6111H6.55625L13.9704 63.9748L16.4828 57.9729H41.4538L51.4537 81.6111ZM47.332 62.3952L44.6676 56.0781V46.1799C44.643 45.3099 43.8138 44.6122 42.798 44.608C41.7578 44.608 40.9138 45.331 40.9138 46.222V54.7752H17.0469V46.1799C17.0175 45.3057 16.1833 44.608 15.1627 44.608C14.1224 44.608 13.2784 45.331 13.2784 46.222V56.1201L10.614 62.4457C9.13702 63.0761 7.38531 63.0089 5.98194 62.2607C4.57857 61.5168 3.72966 60.2012 3.72966 58.789V39.8206C3.72966 33.2849 9.91722 27.9849 17.5473 27.9849H40.3742C48.0043 27.9849 54.1918 33.2849 54.1918 39.8206V58.747C54.2115 59.8272 53.7257 60.8696 52.8474 61.6387C51.3802 62.866 49.172 63.1686 47.332 62.3952Z" fill="#171760"/>
</svg>
