<svg width="62" height="100" viewBox="0 0 62 100" fill="none" xmlns="http://www.w3.org/2000/svg">
<path d="M43.1708 24.7551H42.1372C47.7984 20.9893 49.9076 14.7858 47.4102 9.24214C44.918 3.69856 38.3492 0 30.9875 0C23.6258 0 17.0577 3.69856 14.5648 9.24214C12.0673 14.7857 14.1765 20.9893 19.8377 24.7551H18.8041C8.42089 24.7551 0 31.4965 0 39.8183V58.7646C0 61.4712 1.86779 63.9552 4.85321 65.2244C7.83863 66.4937 11.4536 66.3383 14.25 64.821V92.5179C14.292 95.6995 16.8262 98.5196 20.5775 99.5578C24.3341 100.6 28.4999 99.6377 30.9869 97.1537C33.4686 99.6544 37.6501 100.63 41.4173 99.5872C45.1844 98.5448 47.7238 95.7121 47.75 92.5179V64.821C50.5464 66.3383 54.1614 66.4937 57.1468 65.2244C60.1322 63.9552 62 61.4712 62 58.7646V39.8387C62.0052 35.8333 60.0272 31.9961 56.4909 29.1633C52.9599 26.3348 48.1645 24.7461 43.1695 24.7544L43.1708 24.7551ZM17.5569 13.9827C17.5569 9.63271 20.8309 5.70723 25.8467 4.04286C30.8678 2.37848 36.6445 3.29894 40.4844 6.3755C44.325 9.45206 45.4739 14.0795 43.3964 18.1011C41.3186 22.1191 36.4183 24.7418 30.9879 24.7418C23.5692 24.7418 17.5569 19.9256 17.5569 13.9827ZM57.9724 58.7646C57.9724 61.0216 55.6901 62.854 52.8673 62.854C50.0498 62.854 47.7623 61.0216 47.7623 58.7646V46.1976C47.736 45.3276 46.8493 44.6299 45.7633 44.6257C44.6562 44.6299 43.7538 45.3528 43.7485 46.2396V92.5181C43.7485 94.8927 41.3455 96.8219 38.3759 96.8219C35.4063 96.8219 33.0033 94.8927 33.0033 92.5181V64.4683C33.0033 63.5773 32.1009 62.8544 30.9886 62.8544C29.8763 62.8544 28.9739 63.5773 28.9739 64.4683V92.5181C28.9739 94.8927 26.5708 96.8219 23.6013 96.8219C20.6317 96.8219 18.2287 94.8927 18.2287 92.5181V46.1977C18.1919 45.3235 17.3052 44.63 16.2139 44.6258C15.1016 44.6258 14.1992 45.3487 14.1992 46.2397V58.7648C14.1992 61.0218 11.9117 62.8543 9.09415 62.8543C6.27663 62.8543 3.98911 61.0218 3.98911 58.7648V39.839C3.98911 33.3035 10.6052 28.0036 18.7638 28.0036H43.1715C51.3301 28.0036 57.9462 33.3035 57.9462 39.839L57.9724 58.7646Z" fill="#171760"/>
</svg>
