<svg width="101" height="101" viewBox="0 0 101 101" fill="none" xmlns="http://www.w3.org/2000/svg">
<path fill-rule="evenodd" clip-rule="evenodd" d="M50.5 0.320312C22.9033 0.320312 0.5 22.7236 0.5 50.3203C0.5 77.917 22.9033 100.32 50.5 100.32C78.0967 100.32 100.5 77.917 100.5 50.3203C100.5 22.7236 78.0967 0.320312 50.5 0.320312ZM50.5 6.98698C74.4167 6.98698 93.8333 26.4036 93.8333 50.3203C93.8333 74.237 74.4167 93.6536 50.5 93.6536C26.5833 93.6536 7.16667 74.237 7.16667 50.3203C7.16667 26.4036 26.5833 6.98698 50.5 6.98698ZM66.4033 35.7103L42.85 61.217L33.7733 51.2069C32.5366 49.8436 30.43 49.7403 29.0667 50.9769C27.7034 52.2103 27.6 54.3203 28.8367 55.6837L40.36 68.3936C40.9866 69.087 41.88 69.4836 42.8133 69.487C43.75 69.4936 44.6433 69.1036 45.2767 68.4169L71.3033 40.2336C72.55 38.8836 72.4667 36.7737 71.1167 35.5237C69.7633 34.277 67.6533 34.3603 66.4033 35.7103Z" fill="#171760"/>
</svg>
