<svg width="76" height="101" viewBox="0 0 76 101" fill="none" xmlns="http://www.w3.org/2000/svg">
<path d="M73.1131 42.2852V33.3324C73.1131 28.9086 68.7113 25.2222 63.1443 25.2222C60.8139 25.2222 58.613 25.9595 56.9299 27.1181C55.1174 25.0115 52.1397 23.537 48.6441 23.537C43.7245 23.537 39.5816 26.4861 38.9342 30.3832L36.4744 25.9595L42.1709 11.319C42.9477 9.21249 42.6887 6.8953 41.3941 4.89409C40.0994 2.89288 38.028 1.4183 35.3092 0.786337C32.7199 0.154375 29.8717 0.365029 27.4118 1.4183C25.9877 2.05026 24.8225 2.89288 23.9162 3.84082C22.8805 2.47157 21.1975 1.52363 19.3849 0.891663C16.7956 0.0490478 13.9474 0.154375 11.4876 1.10232C9.02771 2.05026 7.08573 3.63016 6.05 5.7367C5.01428 7.84324 5.14374 10.1604 6.30893 12.1616L14.4653 26.9074L9.15718 40.4946C5.66161 42.2852 3.20176 45.2343 2.55444 48.7101L0.74192 60.2961C-0.293804 66.2997 2.03657 72.4087 6.95626 76.9377L19.6439 88.629V98.1084C19.6439 99.3724 20.8091 100.32 22.3627 100.32C23.9162 100.32 25.0814 99.3724 25.0814 98.1084V87.7864C25.0814 87.2598 24.8225 86.7331 24.4341 86.3118L11.0992 74.0939C7.21519 70.5128 5.40268 65.6677 6.17947 60.928L7.99198 49.3421C8.50985 45.7609 12.2643 43.1278 16.6662 43.1278H16.7956L33.8851 43.4438C36.3449 43.4438 38.2869 45.129 38.2869 47.0249C38.2869 47.9728 37.769 48.9207 36.8628 49.658C35.9565 50.3953 34.7913 50.7113 33.6261 50.7113L21.9743 50.29C20.5501 50.29 19.3849 51.0273 19.126 52.1859L17.9608 58.2948C17.7019 59.4534 18.7376 60.612 20.2912 60.8227C21.8448 61.0334 23.1394 60.1907 23.3984 58.9268L24.0457 55.2404C36.8628 59.6641 35.9565 69.6702 35.8271 70.0915C35.6976 71.2501 36.7333 72.4087 38.2869 72.514H38.5458C39.97 72.514 41.1351 71.6714 41.2646 70.5128C41.2646 70.4075 42.3003 61.4547 33.7556 55.0297C36.3449 55.0297 38.8048 54.2924 40.6173 52.8178C41.5235 52.0806 42.1709 51.3433 42.6887 50.3953C44.3718 51.4486 46.4432 52.0806 48.6441 52.0806C52.0102 52.0806 55.1174 50.7113 56.9299 48.4994C58.613 49.658 60.8139 50.3953 63.1443 50.3953C65.3452 50.3953 67.4166 49.7634 68.9702 48.8154C70.1354 56.5043 70.1354 65.2464 70.0059 71.0394V71.2501C70.0059 76.4111 66.6398 81.1508 61.3318 83.8893L58.2246 85.4692C57.4478 85.8905 56.9299 86.6278 56.9299 87.3651V98.1084C56.9299 99.3724 58.0951 100.32 59.6487 100.32C61.2023 100.32 62.3675 99.267 62.3675 98.1084V88.5237L64.18 87.5758C71.1711 84.1 75.314 77.991 75.4435 71.2501V71.0394C75.573 63.7719 75.7024 51.4486 73.1131 42.2852ZM27.5413 7.52726C27.9297 6.57932 28.8359 5.63138 30.0011 5.21007C31.1663 4.68343 32.461 4.57811 33.7556 4.89409C35.0503 5.21007 36.086 5.94736 36.6039 6.8953C37.2512 7.84324 37.3806 8.89651 36.9923 9.94978L33.1083 19.8505L27.0234 8.89651L27.5413 7.52726ZM16.9251 38.8094C16.4072 38.8094 16.0188 38.9147 15.501 38.9147L17.7019 33.1217L20.9385 38.9147L16.9251 38.8094ZM34.0145 39.02L27.0234 38.9147L11.0992 10.3711C10.5813 9.42315 10.5813 8.36988 10.9697 7.31661C11.3581 6.26334 12.3938 5.52605 13.559 5.10474C14.7242 4.68343 16.1483 4.68343 17.3135 4.99941C18.6082 5.42072 19.5144 6.15801 20.0323 7.10595L38.1574 39.968C36.9922 39.4413 35.5681 39.1253 34.0145 39.02ZM53.1754 44.0757C53.1754 46.0769 51.104 47.7622 48.6441 47.7622C46.1843 47.7622 44.1129 46.0769 44.1129 44.0757V31.6471C44.1129 29.5406 46.1843 27.9607 48.6441 27.9607C51.104 27.9607 53.1754 29.6459 53.1754 31.6471V44.0757ZM67.6756 42.3905C67.6756 44.3917 65.6041 46.0769 63.1443 46.0769C60.6844 46.0769 58.613 44.3917 58.613 42.3905V33.227C58.613 31.2258 60.6844 29.5406 63.1443 29.5406C65.6041 29.5406 67.6756 31.2258 67.6756 33.227V42.3905Z" fill="#171760"/>
</svg>
