<svg width="109" height="91" viewBox="0 0 109 91" fill="none" xmlns="http://www.w3.org/2000/svg">
<path d="M107.218 77.3315L62.4873 4.6513C60.8248 1.93986 57.8376 0.320312 54.4823 0.320312C51.127 0.320312 48.1397 1.93581 46.4773 4.6513L1.74685 77.3315C0.0843827 80.0429 0.0843827 83.278 1.74685 85.9893C3.40932 88.7007 6.39656 90.3203 9.75186 90.3203H99.2481C102.573 90.3203 105.591 88.7048 107.253 85.9893C108.916 83.2779 108.916 80.0428 107.253 77.3315H107.218ZM101.893 83.1034C101.615 83.5377 100.845 84.5484 99.2127 84.5484H9.7164C8.11455 84.5484 7.31358 83.5377 7.0365 83.1034C6.75942 82.6691 6.23556 81.5164 7.0365 80.2175L51.8024 7.54147C52.6033 6.24259 53.9281 6.09649 54.4823 6.09649C55.0364 6.09649 56.3612 6.24261 57.1622 7.54147L101.928 80.2217C102.729 81.5205 102.205 82.6733 101.928 83.1076L101.893 83.1034ZM51.4034 56.866V30.8884C51.4034 29.3014 52.7888 28.0025 54.4815 28.0025C56.1742 28.0025 57.5596 29.3014 57.5596 30.8884V56.866C57.5596 58.453 56.1742 59.7519 54.4815 59.7519C52.7888 59.7519 51.4034 58.453 51.4034 56.866ZM59.1009 69.8548C59.1009 72.2496 57.0401 74.1858 54.4815 74.1858C51.9272 74.1858 49.862 72.2537 49.862 69.8548C49.862 67.46 51.9228 65.5238 54.4815 65.5238C57.0358 65.5238 59.1009 67.4559 59.1009 69.8548Z" fill="#171760"/>
</svg>
