<svg width="101" height="80" viewBox="0 0 101 80" fill="none" xmlns="http://www.w3.org/2000/svg">
<path d="M72.1651 0.303101C58.981 0.303101 47.3415 10.6872 44.4892 24.993C44.2898 25.9919 44.8562 26.9818 45.7554 27.2044C46.6522 27.4198 47.5441 26.7954 47.7427 25.7965C50.2605 13.1719 60.5312 4.00938 72.1651 4.00938C85.9497 4.00938 97.1645 16.4783 97.1645 31.8065C97.1645 47.1347 85.9497 59.6036 72.1651 59.6036C70.0435 59.6036 67.9578 59.3123 65.9673 58.7368C65.0721 58.4708 64.1664 59.0734 63.9353 60.0633C63.7034 61.055 64.238 62.0667 65.1291 62.3236C82.6617 67.5928 100.756 52.0489 100.497 31.8063C100.498 14.4351 87.7881 0.303101 72.1651 0.303101Z" fill="#171760"/>
<path d="M72.1647 11.4187C71.2443 11.4187 70.498 12.2475 70.498 13.2718V31.8033C70.498 32.8276 71.2443 33.6564 72.1647 33.6564H84.7962C86.9717 33.6453 86.9792 29.9613 84.7961 29.9501L73.8313 29.9501V13.2718C73.8313 12.2475 73.0851 11.4187 72.1647 11.4187Z" fill="#171760"/>
<path d="M64.2452 9.79705C58.2297 12.479 53.6897 17.9661 51.7887 24.8502C51.5185 25.8293 52.0133 26.8662 52.893 27.1666C53.7496 27.4655 54.7071 26.9264 54.9754 25.9378C56.5794 20.1287 60.4099 15.4994 65.4854 13.2355C67.4993 12.3352 66.2764 8.89205 64.2452 9.79705Z" fill="#171760"/>
<path d="M65.748 52.5585C65.2699 55.8141 70.2513 55.254 72.1645 55.5086C80.9445 55.5083 88.944 49.3842 92.0714 40.2687C92.8336 38.0067 89.7461 36.68 88.9562 38.9478C85.8615 48.2543 76.3962 53.7224 67.7685 51.2083C66.8799 50.975 65.9709 51.5649 65.748 52.5585Z" fill="#171760"/>
<path d="M61.8486 43.0432C63.1421 40.4148 62.4787 37.4073 61.1583 34.9846C60.0509 32.4962 57.8122 30.9507 55.3155 30.9507H41.9654C40.6699 30.9507 39.6152 29.7781 39.6152 28.3375C39.7148 21.7456 44.2432 14.1492 42.0091 7.65075C40.4831 2.34678 36.4142 -1.20251 33.0351 0.379033C32.0967 0.902336 31.3912 1.847 31.1023 2.95455L27.1457 17.6168C27.0187 18.0548 26.908 18.3606 26.7933 18.5941L19.9242 32.2972C19.5905 32.9704 19.1551 33.5585 18.6294 34.0472L10.6812 39.7695L1.88506 41.4471C1.08511 41.5991 0.5 42.37 0.5 43.2731V75.0733C0.5 76.0053 1.12173 76.7907 1.9526 76.9119L11.1158 78.2312L25.2154 79.9739C25.3675 80.044 44.9601 79.9463 45.1328 79.9849C46.1901 80.0822 52.772 78.4102 53.9419 78.2059C54.374 78.1099 54.7548 77.8276 54.9998 77.4204L60.0794 68.9583C61.104 67.2734 61.4327 65.1579 60.9827 63.1599C60.6999 61.7089 59.8624 59.4148 60.623 58.0005L61.6891 55.6297C62.7372 53.2988 62.5826 50.5065 61.2854 48.342L61.283 48.3384C61.1951 48.1918 61.1178 48.0235 61.0055 47.7086C60.6225 46.8111 60.6783 45.6502 61.0958 44.7552L61.8486 43.0432ZM57.9375 49.151C58.6276 50.6657 59.5747 52.2676 58.7072 53.9721L57.6836 56.2541C57.5534 56.5093 57.4664 56.7608 57.4102 56.9563C56.4814 59.138 57.2316 61.8561 57.748 64.054C57.9693 65.0366 57.813 66.0681 57.3093 66.897L52.6146 74.7222L46.119 76.1627C45.7544 76.2405 45.4313 76.2785 45.1327 76.2785H25.4912L11.5137 74.5502L3.83325 73.4445V44.8348L11.5813 43.3581C11.8034 43.3165 12.0158 43.2242 12.2054 43.0885L20.5215 37.1019C21.4836 36.2987 22.2555 35.2578 22.8391 34.096C23.1167 33.4292 30.6361 18.9002 30.3292 18.7135L34.2996 4.00237C34.4113 3.68343 34.5827 3.60503 34.8139 3.67296C36.1542 4.21229 37.938 5.53157 38.8259 8.74923C40.6546 14.8751 36.0236 22.0796 36.2821 28.3375C36.282 31.8212 38.8316 34.657 41.9654 34.657H55.3155C56.5362 34.657 57.6299 35.4117 58.1743 36.635C58.8566 38.0353 59.7149 39.8041 58.8677 41.3837L58.1149 43.0957C57.2679 44.8535 57.1767 47.4151 57.9375 49.151Z" fill="#171760"/>
</svg>
