<svg width="111" height="80" viewBox="0 0 111 80" fill="none" xmlns="http://www.w3.org/2000/svg">
<path d="M4.39145 19.8623C4.39145 19.4712 4.55038 19.0968 4.83387 18.8192C5.11307 18.5458 5.49535 18.3902 5.89481 18.3902H25.8164C26.2202 18.3776 26.6153 18.529 26.9031 18.8066C27.1952 19.0842 27.3584 19.4628 27.3584 19.8623C27.3584 20.2577 27.1952 20.6405 26.9031 20.9181C26.6153 21.1957 26.2202 21.3429 25.8164 21.3345H5.89481C5.49535 21.3345 5.11306 21.1788 4.83387 20.9012C4.55038 20.6278 4.39145 20.2535 4.39145 19.8623ZM14.6573 62.2132H5.89473C5.08291 62.2342 4.43005 62.8861 4.43005 63.6853C4.43005 64.4803 5.08294 65.1365 5.89473 65.1574H14.6573C15.061 65.1659 15.4562 65.0186 15.7483 64.741C16.0361 64.4634 16.1993 64.0807 16.1993 63.6853C16.1993 63.2857 16.0361 62.9072 15.7483 62.6296C15.4562 62.352 15.061 62.2006 14.6573 62.2132ZM10.3061 27.152C9.89808 27.1435 9.5072 27.2908 9.21511 27.5684C8.92302 27.8459 8.75981 28.2287 8.75981 28.6241C8.75981 29.0236 8.92303 29.4022 9.21511 29.6798C9.50719 29.9574 9.89806 30.1088 10.3061 30.0962H18.3727H18.3684C18.7765 30.1088 19.1674 29.9574 19.4595 29.6798C19.7515 29.4022 19.9148 29.0236 19.9148 28.6241C19.9148 28.2287 19.7515 27.8459 19.4595 27.5684C19.1674 27.2908 18.7765 27.1435 18.3684 27.152H10.3061ZM87.3006 27.3244C87.5626 27.3244 87.8203 27.2571 88.0523 27.1309L91.3038 25.2929H91.2995C92.0211 24.8849 92.266 23.9849 91.8536 23.2824C91.437 22.5758 90.5178 22.336 89.8004 22.7398L86.5489 24.5736V24.5778C85.9561 24.9101 85.6684 25.5915 85.8445 26.2351C86.0206 26.8786 86.6177 27.3286 87.3006 27.3244ZM88.9457 37.4022C88.9457 38.2139 89.6201 38.8743 90.4491 38.8743H94.2076C94.6113 38.8827 95.0065 38.7313 95.2986 38.4537C95.5864 38.1803 95.7539 37.7976 95.7539 37.398C95.7539 37.0026 95.5864 36.6199 95.2986 36.3465C95.0065 36.0689 94.6113 35.9174 94.2076 35.9259H90.4534C90.0539 35.9259 89.6716 36.0815 89.3881 36.3591C89.1046 36.6367 88.9457 37.011 88.9457 37.4022ZM12.9178 12.5701H16.9983H16.994C17.4021 12.5827 17.793 12.4313 18.0851 12.1537C18.3771 11.8761 18.5404 11.4975 18.5404 11.098C18.5404 10.7026 18.3771 10.3198 18.0851 10.0422C17.793 9.76885 17.4021 9.61743 16.994 9.62584H12.9178C12.5097 9.61743 12.1189 9.76885 11.8268 10.0422C11.5347 10.3198 11.3715 10.7026 11.3715 11.098C11.3715 11.4975 11.5347 11.8761 11.8268 12.1537C12.1189 12.4313 12.5097 12.5827 12.9178 12.5701ZM4.67075 46.1551V46.1593C4.67075 46.9711 5.34083 47.6272 6.16985 47.6314H25.8165C26.6455 47.6314 27.3199 46.9711 27.3199 46.1551C27.3199 45.3433 26.6455 44.683 25.8165 44.683H6.16985C5.77038 44.683 5.38809 44.8386 5.1046 45.1162C4.8254 45.3938 4.66648 45.7681 4.66648 46.1593L4.67075 46.1551ZM11.204 37.4023C11.204 36.5863 10.5296 35.9259 9.70057 35.9259H2.04203C1.63827 35.9175 1.2431 36.0689 0.951015 36.3465C0.663226 36.6199 0.5 37.0027 0.5 37.3981C0.5 37.7976 0.663226 38.1804 0.951015 38.4538C1.24309 38.7314 1.63827 38.8828 2.04203 38.8744H9.69629C10.0958 38.8744 10.478 38.7188 10.7615 38.4454C11.045 38.1678 11.204 37.7934 11.204 37.4023ZM77.9193 18.6851C78.2629 18.8828 78.6753 18.9374 79.0619 18.8365C79.4442 18.7313 79.7749 18.4874 79.9725 18.1467L81.8538 14.9585C82.2705 14.2561 82.0256 13.356 81.304 12.948C80.5867 12.54 79.6675 12.7798 79.2508 13.4864L77.3695 16.6746C77.1719 17.0111 77.1161 17.4148 77.2192 17.7934C77.3223 18.1678 77.5757 18.4916 77.9193 18.6851ZM66.8935 58.9922C66.4941 58.9922 66.1118 59.1479 65.8283 59.4255C65.5448 59.6989 65.3902 60.0774 65.3902 60.4644V64.1447C65.4117 64.9439 66.0774 65.5789 66.8936 65.5789C67.7054 65.5789 68.3755 64.9438 68.3969 64.1447V60.4644C68.3969 59.6526 67.7226 58.9922 66.8935 58.9922ZM55.859 56.1027C55.1374 55.6947 54.2182 55.9344 53.8015 56.641L51.9331 59.825C51.5894 60.519 51.8515 61.356 52.5344 61.7429C53.2131 62.1299 54.0851 61.9364 54.5317 61.2971L56.4002 58.1131C56.8168 57.4107 56.572 56.5107 55.859 56.1027ZM54.5318 13.4869C54.1065 12.8014 53.2002 12.5742 52.4914 12.9738C51.7827 13.3734 51.5293 14.2525 51.9245 14.9591L53.7972 18.1473C54.2224 18.8329 55.1244 19.06 55.8332 18.6604C56.542 18.2608 56.7954 17.3818 56.4045 16.6794L54.5318 13.4869ZM70.8796 37.4027C70.8753 39.5562 69.0928 41.3017 66.8935 41.3059C66.7088 41.3059 66.5241 41.2891 66.3437 41.2639L62.1215 48.431C61.8509 48.8894 61.3526 49.1712 60.8157 49.167C60.2788 49.167 59.7848 48.8852 59.5185 48.431C59.2479 47.9767 59.2479 47.4173 59.5142 46.9588L63.7365 39.7917C62.9676 38.8285 62.7056 37.5667 63.032 36.3848C63.3542 35.2028 64.2261 34.2355 65.3858 33.7812V19.3796C65.4073 18.5805 66.0774 17.9454 66.8892 17.9454C67.7053 17.9454 68.3712 18.5805 68.3969 19.3796V33.7769C69.9003 34.3783 70.8796 35.8086 70.8796 37.4027ZM67.8728 37.4027C67.8728 37.0115 67.6323 36.6582 67.2672 36.511C66.8978 36.3596 66.4769 36.4395 66.1934 36.7171C65.9099 36.9947 65.8283 37.4069 65.9786 37.7686C66.1332 38.1262 66.4941 38.3617 66.8935 38.3617C67.4304 38.3575 67.8686 37.9285 67.8728 37.4027ZM66.8935 15.8041V15.7999C67.7225 15.7999 68.3969 15.1438 68.3969 14.3278V10.639C68.4055 10.2437 68.2551 9.85671 67.9717 9.5749C67.6882 9.2889 67.2973 9.12906 66.8935 9.12906C66.4855 9.12906 66.0989 9.2889 65.8154 9.5749C65.5319 9.85671 65.3773 10.2437 65.3902 10.639V14.3236C65.3902 14.7147 65.5448 15.0891 65.8283 15.3667C66.1118 15.6401 66.4941 15.7957 66.8935 15.7957L66.8935 15.8041ZM44.8365 37.4027C44.8365 36.5867 44.1621 35.9264 43.3288 35.9264H39.5661C38.7543 35.9516 38.1057 36.6035 38.1057 37.3985C38.1057 38.1977 38.7543 38.8496 39.5661 38.8748H43.3288C44.1621 38.8748 44.8365 38.2145 44.8365 37.4027ZM45.7342 47.6612L42.4784 49.4909C41.7568 49.8946 41.5077 50.7947 41.92 51.5014C42.3324 52.2038 43.2515 52.4477 43.9732 52.044L47.229 50.2143C47.9506 49.8106 48.2041 48.9063 47.7874 48.1996C47.3751 47.493 46.4559 47.2491 45.7342 47.6528V47.6612ZM47.2333 24.5864L43.9732 22.74C43.2559 22.3573 42.3538 22.6054 41.9458 23.2994C41.542 23.9934 41.7739 24.881 42.4741 25.2931L45.7299 27.1228C46.4515 27.5308 47.3707 27.2868 47.7831 26.5844C48.1954 25.8778 47.9506 24.9777 47.229 24.5739L47.2333 24.5864ZM110.499 60.5607C110.504 65.8099 108.334 70.8362 104.494 74.495C100.654 78.1542 95.4656 80.1395 90.1093 79.9924C84.7487 79.8494 79.6802 77.5865 76.0508 73.7253C63.7319 76.7032 50.7038 73.4898 41.2934 65.1576H18.9702C18.1541 65.1366 17.5056 64.4804 17.5056 63.6855C17.5056 62.8863 18.1542 62.2343 18.9702 62.2133H38.3123C36.6801 60.4131 35.2283 58.4657 33.9783 56.3964H13.4685C12.6567 56.3754 12.0081 55.7234 12.0081 54.9243C12.0081 54.1251 12.6567 53.4731 13.4685 53.4521H32.3718C30.1469 48.8885 28.9012 43.9253 28.7036 38.8697H14.0184C13.6146 38.8823 13.2195 38.7309 12.9274 38.4533C12.6396 38.1757 12.4721 37.7971 12.4721 37.3975C12.4721 37.0022 12.6396 36.6194 12.9274 36.3418C13.2194 36.0642 13.6146 35.917 14.0184 35.9254H28.7036C28.781 33.9696 29.0129 32.0222 29.4038 30.1H22.6944C21.8783 30.0789 21.2297 29.427 21.2297 28.6278C21.2297 27.8329 21.8783 27.1767 22.6944 27.1557H30.1296C31.706 21.7551 34.5023 16.771 38.3165 12.5775H21.3199C20.5081 12.5523 19.8595 11.9004 19.8595 11.1012C19.8595 10.3063 20.5081 9.65007 21.3199 9.62907H41.2932C49.4328 2.44509 60.3296 -0.974465 71.2146 0.241081C82.1032 1.45663 91.9356 7.18947 98.211 15.9843C104.491 24.7792 106.608 35.7868 104.036 46.2173C108.155 49.8935 110.5 55.1006 110.5 60.5597L110.499 60.5607ZM74.0098 71.1601C73.5288 70.4366 73.0949 69.6796 72.7126 68.8972C63.5206 70.5291 54.0534 68.2326 46.7048 62.5839C39.3554 56.9393 34.8191 48.4805 34.2528 39.3497C33.6815 30.2183 37.1264 21.285 43.7155 14.803C50.3088 8.32144 59.419 4.91029 68.7447 5.42767C78.0742 5.94923 86.7288 10.353 92.5237 17.5239C98.3224 24.6995 100.711 33.9573 99.0826 42.9665C99.8859 43.3366 100.663 43.7572 101.406 44.2283C103.417 34.4829 101.028 24.359 94.8604 16.4643C88.688 8.56533 79.3328 3.66061 69.2 3.01348C59.0629 2.36995 49.1409 6.03765 41.9715 13.0828C34.8069 20.128 31.0957 29.8651 31.7958 39.7831C32.496 49.7051 37.5388 58.8448 45.6311 64.8596C53.7192 70.87 64.0661 73.1663 74.0098 71.1601ZM90.6458 41.1208C92.5314 41.1166 94.4085 41.3816 96.2169 41.899C97.5141 33.7644 95.2246 25.4785 89.9241 19.0933C84.6194 12.7085 76.797 8.82629 68.4004 8.41411C60.0074 7.9977 51.8294 11.0934 45.897 16.9271C39.9652 22.7568 36.8424 30.7817 37.2977 39.0006C37.7573 47.2192 41.7563 54.8611 48.2982 60.0263C54.84 65.1914 63.3144 67.3954 71.6132 66.0914C69.8306 60.2114 70.9903 53.852 74.7358 48.9345C78.4813 44.0169 84.3831 41.1196 90.646 41.1196L90.6458 41.1208ZM107.492 60.5616C107.492 56.1873 105.718 51.9897 102.556 48.8982C99.3993 45.8026 95.1126 44.0654 90.6455 44.0654C86.1783 44.0654 81.8916 45.8026 78.7345 48.8982C75.5732 51.9897 73.7992 56.1873 73.7992 60.5616C73.7992 64.9359 75.5732 69.1335 78.7345 72.225C81.8916 75.3207 86.1783 77.0578 90.6455 77.0578C95.1126 77.0536 99.395 75.3123 102.552 72.2208C105.709 69.1293 107.487 64.9358 107.492 60.5616ZM103.811 53.9455C103.815 54.9423 103.411 55.9013 102.69 56.608L89.1897 69.823C87.6906 71.2783 85.2724 71.2783 83.7733 69.823L78.606 64.7631H78.6017C77.1413 63.291 77.1542 60.944 78.6361 59.4887C80.118 58.0376 82.5147 58.0208 84.0224 59.4509L86.4879 61.8652L97.2778 51.2995H97.2735C98.7726 49.8358 101.191 49.8358 102.69 51.2995C103.412 51.9977 103.815 52.9529 103.811 53.9455ZM100.804 53.9497C100.804 53.7394 100.718 53.5333 100.563 53.3861C100.409 53.2347 100.198 53.1506 99.9792 53.1506C99.7601 53.1506 99.5539 53.2347 99.3993 53.3861L87.5444 64.9903C87.2652 65.2637 86.8787 65.4193 86.4835 65.4193C86.084 65.4193 85.7017 65.2637 85.4182 64.9903L81.9004 61.5371C81.7457 61.3773 81.5353 61.2847 81.3076 61.2805C81.0843 61.2763 80.8695 61.3647 80.7106 61.5161C80.5559 61.6717 80.4657 61.882 80.47 62.1049C80.4743 62.3236 80.5688 62.5297 80.732 62.6812L85.8993 67.7411C86.2258 68.0523 86.7455 68.0523 87.0677 67.7411L100.56 54.5218C100.714 54.3703 100.804 54.1642 100.804 53.9497Z" fill="#171760"/>
</svg>
