<svg width="111" height="80" viewBox="0 0 111 80" fill="none" xmlns="http://www.w3.org/2000/svg">
<path d="M55.5013 18.628C29.9589 18.628 9.18552 41.489 9.18552 69.5982V75.6111C9.18552 78.0299 10.9713 80 13.1737 80H97.8292C100.027 80 101.817 78.0347 101.817 75.6111V69.5982C101.817 41.504 81.0437 18.628 55.5013 18.628ZM98.3787 75.6118C98.3787 75.9532 98.1261 76.2165 97.8292 76.2165L13.1737 76.2214C12.8768 76.2214 12.6242 75.9434 12.6242 75.6167V69.6038C12.6242 43.5869 31.865 22.4176 55.5016 22.4176C79.1427 22.4176 98.379 43.5919 98.379 69.6038L98.3787 75.6118ZM82.7851 39.5739C82.7142 39.4959 82.6477 39.4374 82.5768 39.3837C75.6108 31.8152 66.0439 27.1385 55.5018 27.1385C44.9464 27.1385 35.3796 31.8152 28.4131 39.3935C28.3422 39.4422 28.2891 39.5056 28.2182 39.569C28.1605 39.6324 28.1029 39.7056 28.0586 39.7836C21.1724 47.4496 16.9228 57.9929 16.9228 69.5944C16.9228 70.6429 17.6894 71.4865 18.6421 71.4865H29.7691C30.7218 71.4865 31.4884 70.6429 31.4884 69.5944C31.4884 55.018 42.2698 43.163 55.5198 43.163C61.9718 43.163 68.012 45.9866 72.443 50.829C72.4651 50.8534 72.4784 50.8778 72.5006 50.9071L72.5449 50.9558C73.4267 51.9409 74.2509 52.9991 74.9955 54.1354L60.9798 52.926C59.4421 51.6922 57.5544 50.9705 55.516 50.9705C50.3712 50.9705 46.1881 55.574 46.1881 61.2358C46.1881 66.8976 50.3712 71.5011 55.516 71.5011C58.6002 71.5011 61.3387 69.848 63.0315 67.3024L69.9753 64.1765L78.0757 60.5336C79.0373 63.4352 79.5291 66.4879 79.5291 69.6138C79.5291 70.6623 80.2958 71.5059 81.2485 71.5059H92.3754C93.3282 71.5059 94.0948 70.6622 94.0948 69.6138C94.0948 58.0123 89.8451 47.4932 82.981 39.8179C82.9101 39.7253 82.8515 39.6519 82.7851 39.5739ZM73.6654 46.9375C69.1499 42.5486 63.3848 39.8615 57.221 39.4471V30.9617C65.6182 31.4055 73.2536 35.1214 79.0936 40.9636L73.6654 46.9375ZM37.3506 46.9522L31.9089 40.9637C37.7538 35.1263 45.3846 31.4202 53.7952 30.9764V39.452C47.5027 39.8762 41.7861 42.6364 37.3506 46.9522ZM28.0936 67.707H20.3919C20.7952 58.4659 24.1629 50.0632 29.4672 43.6364L34.9089 49.6249C30.9916 54.5162 28.4835 60.7973 28.0936 67.707ZM55.501 67.707C52.2484 67.707 49.5985 64.7957 49.5985 61.226C49.5985 57.6466 52.244 54.7304 55.501 54.7304C58.7447 54.7304 61.3902 57.6417 61.3902 61.226C61.3902 64.8055 58.7536 67.707 55.501 67.707ZM68.6658 60.6701L64.7574 62.4207C64.8018 62.0306 64.8283 61.6259 64.8283 61.2211C64.8283 59.7094 64.5314 58.2561 63.982 56.9589L74.7988 57.8903L68.6658 60.6701ZM82.9084 67.707C82.7489 64.742 82.1861 61.8551 81.2467 59.0802L82.7844 58.3878C83.5155 58.061 83.9542 57.2174 83.8257 56.3445C83.7017 55.4765 83.0591 54.8181 82.2659 54.7548L79.2881 54.5061C78.3619 52.7407 77.294 51.1119 76.102 49.6148L81.5348 43.636C86.8391 50.0682 90.2068 58.4659 90.6101 67.7066L82.9084 67.707ZM53.7812 10.5822V1.89209C53.7812 0.843628 54.5478 0 55.5005 0C56.4532 0 57.2198 0.843652 57.2198 1.89209V10.5822C57.2198 11.6306 56.4532 12.4743 55.5005 12.4743C54.5478 12.4743 53.7812 11.616 53.7812 10.5822ZM67.7265 12.0939L69.765 3.70604C70.0042 2.69658 70.9437 2.10657 71.8743 2.36986C72.7916 2.6332 73.3277 3.68169 73.0884 4.69116L71.05 13.079C70.8418 13.9226 70.146 14.4786 69.3883 14.4786C69.2377 14.4786 69.0914 14.4542 68.9408 14.4152C68.0235 14.1372 67.4739 13.1033 67.7265 12.0939ZM80.8347 17.5459L84.7786 10.0165C85.2483 9.10947 86.303 8.80711 87.1271 9.32403C87.9514 9.84095 88.2261 11.0016 87.7564 11.9086L83.8125 19.438C83.4934 20.0427 82.9174 20.3841 82.3236 20.3841C82.0355 20.3841 81.7387 20.3061 81.4639 20.1305C80.6397 19.599 80.3561 18.4529 80.8347 17.5459ZM92.214 29.1961C91.536 28.45 91.536 27.265 92.214 26.5238L97.793 20.3841C98.471 19.638 99.5478 19.638 100.221 20.3841C100.899 21.1302 100.899 22.3152 100.221 23.0564L94.6423 29.1961C94.3099 29.5619 93.8624 29.7521 93.4281 29.7521C92.9939 29.7521 92.5463 29.5716 92.214 29.1961ZM109.642 37.3791L102.813 41.7193C102.539 41.8949 102.251 41.9729 101.954 41.9729C101.36 41.9729 100.784 41.6315 100.465 41.0268C99.995 40.1198 100.27 38.9738 101.094 38.4422L107.923 34.102C108.747 33.5851 109.788 33.8874 110.271 34.7945C110.741 35.7015 110.466 36.8621 109.642 37.3791ZM37.921 4.68192C37.6817 3.67247 38.2179 2.63864 39.1351 2.36062C40.0524 2.09728 40.9918 2.68736 41.2445 3.6968L43.2829 12.0846C43.5222 13.0941 42.986 14.1279 42.0687 14.4059C41.9181 14.4449 41.7718 14.4693 41.6212 14.4693C40.8634 14.4693 40.1678 13.9134 39.9595 13.0697L37.921 4.68192ZM23.2439 11.9091C22.7742 11.0021 23.049 9.85609 23.8732 9.32452C24.6974 8.8076 25.7387 9.10994 26.2218 10.017L30.1657 17.5464C30.6354 18.4535 30.3607 19.5994 29.5364 20.131C29.2617 20.3066 28.9737 20.3846 28.6768 20.3846C28.083 20.3846 27.5069 20.0432 27.1878 19.4385L23.2439 11.9091ZM10.7745 23.0668C10.0965 22.3207 10.0965 21.1356 10.7745 20.3944C11.4525 19.6483 12.5293 19.6483 13.2028 20.3944L18.7819 26.5341C19.4598 27.2803 19.4598 28.4653 18.7819 29.2065C18.4495 29.5722 18.0019 29.7624 17.5677 29.7624C17.1334 29.7624 16.6859 29.5722 16.3535 29.2065L10.7745 23.0668ZM9.04632 41.9827C8.75828 41.9827 8.4614 41.9047 8.18665 41.7291L1.35806 37.3889C0.533839 36.872 0.259096 35.7113 0.72881 34.8043C1.19853 33.8973 2.25323 33.5949 3.07738 34.1118L9.90598 38.4521C10.7302 38.969 11.0049 40.1297 10.5352 41.0367C10.2162 41.6414 9.64012 41.9827 9.04632 41.9827Z" fill="#171760"/>
</svg>
