<svg width="101" height="100" viewBox="0 0 101 100" fill="none" xmlns="http://www.w3.org/2000/svg">
<path d="M75.916 30.1935H72.5691C72.0501 30.1935 71.5489 29.9608 71.2089 29.567C70.8688 29.1733 70.7256 28.6364 70.8151 28.1174C70.9404 27.312 70.9941 26.614 70.9583 26.0054C70.7435 22.1752 68.6495 21.871 68.22 21.8531C67.2535 21.8531 66.466 21.0477 66.466 20.0633C66.466 19.0789 67.2535 18.2736 68.238 18.2736H75.755C76.7394 18.2736 77.5448 19.0789 77.5448 20.0633C77.5448 21.0477 76.7394 21.8531 75.755 21.8531H73.5715C74.0906 22.8733 74.4306 24.1619 74.538 25.7727C74.5559 26.0412 74.5559 26.3276 74.5559 26.6139H75.934C76.9184 26.6139 77.7238 27.4193 77.7238 28.4037C77.7238 29.3881 76.9184 30.1935 75.934 30.1935H75.916Z" fill="#171760"/>
<path d="M65.4798 99.2802H35.5193C35.036 99.2802 34.5886 99.0833 34.2485 98.7612C33.9084 98.439 33.7295 97.9737 33.7295 97.4904L33.7832 64.7556C33.7832 63.7712 34.5886 62.9658 35.573 62.9658C36.5573 62.9658 37.3627 63.7712 37.3627 64.7556L37.309 95.6829H63.69L63.6363 64.7556C63.6363 63.7712 64.4417 62.9658 65.4261 62.9658C66.4105 62.9658 67.2159 63.7712 67.2159 64.7556L67.2695 97.4904C67.2695 97.9736 67.0906 98.4211 66.7505 98.7612C66.4105 99.1012 65.9631 99.2802 65.4798 99.2802Z" fill="#171760"/>
<path d="M65.6239 52.1709C64.6395 52.1709 63.8342 51.3655 63.8342 50.3811V46.1751C63.852 44.4391 64.3711 41.0563 65.6598 39.2667C67.6465 36.582 70.1879 32.0539 70.8143 28.1342C70.9754 27.1678 71.8703 26.4876 72.8726 26.6487C73.8391 26.8098 74.5192 27.7226 74.3581 28.707C73.6243 33.2709 70.886 38.2464 68.5593 41.3963C67.9507 42.2196 67.4496 44.7074 67.4317 46.2108V50.3988C67.4317 51.3832 66.6263 52.1886 65.6419 52.1886L65.6239 52.1709Z" fill="#171760"/>
<path d="M35.5733 52.1703H35.5375C34.5532 52.1524 33.7656 51.3291 33.7836 50.3447L33.8731 45.7986C33.8731 44.671 33.4078 41.879 32.9961 40.9126C32.0117 38.6395 31.6538 34.2905 31.4211 28.4912C31.3853 27.5069 32.1549 26.6656 33.1393 26.6299C34.1416 26.6299 34.9649 27.3637 35.0007 28.3481C35.1081 31.0507 35.3586 37.3685 36.2893 39.4984C36.9694 41.0734 37.4526 44.3844 37.4526 45.8341L37.3631 50.4159C37.3452 51.3824 36.5398 52.1703 35.5733 52.1703Z" fill="#171760"/>
<path d="M36.7543 30.3546H36.7006C33.6759 30.3188 31.385 28.0637 31.2776 24.9674C31.2418 23.9831 32.0114 23.1418 32.9957 23.1061C34.0338 23.0345 34.8214 23.8399 34.8571 24.8243C34.8929 25.7549 35.4119 26.7572 36.7542 26.7751C37.8639 26.8109 38.8125 25.8802 38.8304 24.7348C38.8304 23.7504 39.6357 22.9629 40.6201 22.9629C41.6045 22.9629 42.4099 23.7862 42.392 24.7705C42.3562 27.8668 39.8327 30.3546 36.7543 30.3546Z" fill="#171760"/>
<path d="M32.9597 22.0132C31.9753 22.0132 31.1699 21.1899 31.1878 20.2056V18.5948C31.2415 15.4986 33.7651 13.0107 36.8435 13.0107H36.8972C38.4006 13.0107 39.8145 13.6193 40.8705 14.6932C41.9265 15.7671 42.4992 17.181 42.4813 18.7023C42.4813 19.6867 41.6759 20.4742 40.6915 20.4742C39.7071 20.4742 38.9017 19.6509 38.9196 18.6665C38.9196 18.1117 38.7227 17.5927 38.329 17.199C37.9531 16.8052 37.4341 16.5905 36.8793 16.5905C35.7696 16.6084 34.821 17.4853 34.8031 18.6307V20.2415C34.7852 21.2259 33.9798 22.0134 32.9955 22.0134L32.9597 22.0132Z" fill="#171760"/>
<path d="M44.4507 30.4246H44.397C42.8936 30.4246 41.4796 29.8161 40.4236 28.7422C39.3677 27.6682 38.7949 26.2365 38.8129 24.7331L38.9024 15.6052C38.9024 14.1018 39.5109 12.6878 40.5848 11.6318C41.6588 10.5758 43.1084 9.98522 44.5939 10.0211C46.0973 10.0211 47.5113 10.6296 48.5673 11.7035C49.6233 12.7774 50.196 14.1913 50.178 15.7126C50.178 16.697 49.3726 17.4845 48.3883 17.4845C47.4039 17.4845 46.5985 16.6612 46.6163 15.6769C46.6163 15.122 46.4195 14.603 46.0257 14.2093C45.6499 13.8156 45.1308 13.6008 44.576 13.6008H44.5581C43.4306 13.6008 42.5179 14.5136 42.4999 15.6411L42.4104 24.769C42.4104 25.3238 42.6073 25.8428 43.001 26.2365C43.3947 26.6302 43.8959 26.8451 44.4507 26.8451C45.6499 26.8093 46.509 25.9502 46.5268 24.8048C46.5268 23.8204 47.3322 23.0329 48.3166 23.0329C49.301 23.0329 50.1064 23.8562 50.0885 24.8405C50.0527 27.9368 47.5291 30.4246 44.4507 30.4246Z" fill="#171760"/>
<path d="M55.9949 26.6847C55.0105 26.6847 54.2051 25.8614 54.2229 24.877L54.3124 15.7491C54.3482 12.6529 56.8718 10.165 59.9503 10.165H60.0039C61.5074 10.165 62.9213 10.7736 63.9773 11.8475C65.0333 12.9214 65.606 14.3532 65.588 15.8566L65.5522 19.9731C65.5522 20.9575 64.7468 21.745 63.7625 21.745C62.7781 21.745 61.9727 20.9217 61.9906 19.9374L62.0264 15.8208C62.0264 15.266 61.8295 14.747 61.4357 14.3533C61.0599 13.9595 60.5409 13.7448 59.9861 13.7448H59.9682C58.8406 13.7448 57.9279 14.6575 57.9099 15.785L57.8204 24.9129C57.8204 25.8973 57.015 26.6848 56.0306 26.6848L55.9949 26.6847Z" fill="#171760"/>
<path d="M52.147 30.4975H52.0933C50.5899 30.4975 49.1759 29.8889 48.1199 28.815C47.0639 27.7411 46.4912 26.3093 46.5092 24.8059L46.6166 13.3692C46.6524 10.273 49.176 7.78516 52.2544 7.78516H52.3081C53.8115 7.78516 55.2255 8.39368 56.2814 9.4676C57.3374 10.5415 57.9102 11.9733 57.8922 13.4767V15.7855C57.8564 16.7698 56.9973 17.5574 56.0666 17.5574C55.0822 17.5574 54.2768 16.7341 54.2947 15.7497V13.441C54.3305 12.8861 54.1157 12.3671 53.7219 11.9734C53.3461 11.5796 52.827 11.3649 52.2722 11.3649C51.1447 11.3649 50.214 12.2598 50.1961 13.4052L50.0887 24.8418C50.0887 25.3967 50.2856 25.9157 50.6793 26.3094C51.0731 26.7031 51.5742 26.9179 52.129 26.9179C53.2745 26.9537 54.1873 26.023 54.2052 24.8776C54.2052 23.8932 55.0106 23.1057 55.9949 23.1057C56.9793 23.1057 57.7847 23.929 57.7668 24.9134C57.731 28.0096 55.2074 30.4975 52.129 30.4975H52.147Z" fill="#171760"/>
<path d="M54.3484 40.8613C53.364 40.8613 52.5586 40.0559 52.5586 39.0715C52.5586 33.8275 55.6907 30.7491 59.306 28.8161C57.3731 27.796 54.2052 25.5767 54.2409 21.9971C54.2409 20.8517 54.6526 19.921 55.3506 19.223C56.0486 18.5249 56.9972 18.1849 57.9816 18.167L68.2907 18.2565C69.2751 18.2565 70.0804 19.0798 70.0626 20.0641C70.0626 21.0485 69.2572 21.836 68.2728 21.836L57.9637 21.7465L57.8384 22.0329C57.8205 24.2701 61.3642 25.8451 61.758 26.0063C62.1697 26.1852 63.9952 26.4716 65.3733 26.6148C66.2145 26.7043 66.8767 27.3844 66.9662 28.2255C67.0378 29.0667 66.5188 29.8542 65.7133 30.1048C59.1091 32.1093 56.1559 34.8835 56.1559 39.0536C56.1559 40.038 55.3505 40.8434 54.3661 40.8434L54.3484 40.8613Z" fill="#171760"/>
<path d="M33.2099 30.1933H25.0486C24.0642 30.1933 23.2588 29.3879 23.2588 28.4035C23.2588 27.4191 24.0642 26.6137 25.0486 26.6137H31.3307C31.2591 24.7345 31.2054 23.0342 31.1696 21.853H25.2276C24.2432 21.853 23.4378 21.0476 23.4378 20.0632C23.4378 19.0788 24.2432 18.2734 25.2276 18.2734H32.9237C33.908 18.2734 34.6956 19.0609 34.7134 20.0274C34.7134 20.0632 34.785 23.9649 34.9998 28.314C35.0177 28.7973 34.8387 29.2805 34.5165 29.6384C34.1765 29.9964 33.7112 30.1932 33.2279 30.1932L33.2099 30.1933Z" fill="#171760"/>
<path d="M94.6696 42.0957H85.2553C82.7497 42.0957 80.6198 40.1269 80.2977 37.5139C78.9733 26.9542 78.9733 15.8751 80.3156 4.61756C80.6378 1.98656 82.7676 0 85.2732 0H94.6338C97.1395 0 99.2693 1.98668 99.5914 4.61756C100.934 15.8752 100.934 26.9539 99.6093 37.5139C99.2872 40.1269 97.1574 42.0957 94.6517 42.0957H94.6696ZM85.2733 3.56145C84.5753 3.56145 83.9668 4.18787 83.8772 5.029C82.5707 16.0003 82.5707 26.7926 83.8593 37.0662C83.9667 37.8895 84.5574 38.5159 85.2554 38.5159H94.6697C95.3677 38.5159 95.9762 37.8895 96.0658 37.0662C97.3544 26.7929 97.3544 16.0002 96.0479 5.029C95.9405 4.18781 95.3499 3.56145 94.6518 3.56145H85.2733Z" fill="#171760"/>
<path d="M91.8805 36.082C91.7731 36.082 91.6657 36.082 91.5583 36.0462C90.5919 35.8672 89.9296 34.9365 90.1086 33.97C91.7194 24.9139 91.7194 16.2155 90.1086 8.14348C89.9118 7.17701 90.5382 6.2284 91.5226 6.0315C92.4891 5.83461 93.4377 6.46104 93.6166 7.44544C95.299 15.9648 95.299 25.0923 93.6166 34.5962C93.4555 35.4552 92.7038 36.0817 91.8627 36.0817L91.8805 36.082Z" fill="#171760"/>
<path d="M15.7253 42.0957H6.311C3.80532 42.0957 1.67546 40.1269 1.35336 37.5139C0.0289851 26.9542 0.0289851 15.8751 1.37126 4.61756C1.67551 1.98656 3.82322 0 6.3289 0H15.6894C18.1951 0 20.3428 1.98668 20.6471 4.61756C21.9894 15.8752 21.9894 26.9539 20.665 37.5139C20.3428 40.1269 18.213 42.0957 15.7073 42.0957H15.7253ZM6.32898 3.56145C5.63097 3.56145 5.02248 4.18787 4.93291 5.029C3.6264 16.0003 3.6264 26.7926 4.91501 37.0662C5.02239 37.8895 5.63092 38.5159 6.31109 38.5159H15.7253C16.4234 38.5159 17.0319 37.8895 17.1214 37.0662C18.4101 26.7929 18.3922 16.0002 17.1035 5.029C16.9961 4.18781 16.4055 3.56145 15.7075 3.56145H6.32898Z" fill="#171760"/>
<path d="M9.08411 36.0817C8.22502 36.0817 7.47337 35.4731 7.33019 34.5961C5.64775 25.0924 5.64775 15.9642 7.33019 7.44541C7.52707 6.47893 8.45775 5.85254 9.44218 6.03146C10.4087 6.22834 11.035 7.15902 10.8561 8.14345C9.26326 16.2154 9.26326 24.9141 10.8561 33.97C11.0351 34.9365 10.3729 35.8671 9.40644 36.0462C9.29905 36.0641 9.1915 36.0817 9.08411 36.0817Z" fill="#171760"/>
<path d="M65.4261 66.5612H35.5549C32.7092 66.5612 30.4004 64.2524 30.4004 61.4066V53.7464C30.4004 50.9006 32.7092 48.5919 35.5549 48.5919H65.4261C68.2719 48.5919 70.5806 50.9006 70.5806 53.7464V61.4066C70.5806 64.2524 68.2719 66.5612 65.4261 66.5612ZM35.5733 52.172C34.6963 52.172 33.9983 52.8879 33.9983 53.747V61.4072C33.9983 62.2842 34.7142 62.9822 35.5733 62.9822H65.4444C66.3214 62.9822 67.0194 62.2663 67.0194 61.4072V53.747C67.0194 52.87 66.3214 52.172 65.4444 52.172H35.5733Z" fill="#171760"/>
</svg>
