<svg width="81" height="100" viewBox="0 0 81 100" fill="none" xmlns="http://www.w3.org/2000/svg">
<path d="M40.4263 93.6711H9.12354C6.34014 93.6711 4.08569 91.5031 4.08569 88.8264V21.4488C4.08569 18.7721 6.34014 16.5955 9.12354 16.5869H20.3826V13.1387H9.12354C4.35912 13.1473 0.5 16.867 0.5 21.4488V88.8264C0.508965 93.4038 4.36359 97.1107 9.12354 97.1193H40.4263C41.4168 97.1193 42.2191 96.3477 42.2191 95.3952C42.2191 94.4426 41.4168 93.6711 40.4263 93.6711Z" fill="#171760"/>
<path d="M67.0684 21.4478V47.982C67.0684 48.9346 67.8707 49.7061 68.8612 49.7061C69.8518 49.7061 70.6541 48.9346 70.6541 47.982V21.4478C70.6541 16.8661 66.795 13.1463 62.0305 13.1377H50.7715V16.5859H62.0305C64.8139 16.5945 67.0684 18.7712 67.0684 21.4478Z" fill="#171760"/>
<path d="M25.5994 20.3967H45.5358C45.975 20.3967 46.3919 20.2329 46.7011 19.9312C47.0149 19.6338 47.1852 19.2329 47.1852 18.8105V11.9313C47.1807 11.5132 47.0059 11.1124 46.6966 10.8193C46.3874 10.5262 45.9705 10.3581 45.5358 10.3624H25.5994C24.6985 10.3667 23.9723 11.065 23.9679 11.9314V18.8106C23.9634 19.2287 24.1382 19.6295 24.443 19.9269C24.7477 20.2243 25.1646 20.3924 25.5994 20.3967Z" fill="#171760"/>
<path d="M35.5681 3.44828C36.7738 3.43966 37.9301 3.90086 38.7773 4.72406C39.4003 5.32319 39.8306 6.08614 40.0143 6.91371H43.6358C43.4386 5.15948 42.6139 3.52585 41.3052 2.2931C39.7902 0.819031 37.724 -0.00854027 35.5681 6.64675e-05C31.4535 0.00437646 27.9977 2.98274 27.5361 6.91371H31.1576C31.5969 4.90514 33.4346 3.46119 35.5681 3.44828Z" fill="#171760"/>
<path d="M54.5455 35.5518H32.1444C31.1539 35.5518 30.3516 36.3233 30.3516 37.2759C30.3516 38.2284 31.1539 39 32.1444 39H54.5546C55.5452 39 56.3475 38.2284 56.3475 37.2759C56.3475 36.3233 55.5452 35.5518 54.5546 35.5518H54.5455Z" fill="#171760"/>
<path d="M28.1182 30.6153C27.4056 29.9515 26.2716 29.9645 25.5814 30.6455L19.7905 36.3781L18.0515 34.1281C17.7691 33.7531 17.3433 33.5031 16.8727 33.4342C16.3976 33.3609 15.9135 33.4773 15.5281 33.7531C15.1426 34.029 14.8916 34.4385 14.8244 34.8954C14.7571 35.3523 14.8826 35.8178 15.174 36.1842L18.1681 40.0591C18.4818 40.4643 18.9659 40.7143 19.4902 40.7488H19.6112C20.0908 40.7488 20.557 40.5634 20.8931 40.2315L28.1497 33.0592C28.4858 32.7317 28.6696 32.2877 28.6606 31.8308C28.6561 31.3696 28.4589 30.9343 28.1182 30.6153Z" fill="#171760"/>
<path d="M54.5455 50.2061H32.1444C31.1539 50.2061 30.3516 50.9776 30.3516 51.9302C30.3516 52.8827 31.1539 53.6543 32.1444 53.6543H54.5546C55.5452 53.6543 56.3475 52.8827 56.3475 51.9302C56.3475 50.9776 55.5452 50.2061 54.5546 50.2061H54.5455Z" fill="#171760"/>
<path d="M28.1182 45.2704C27.4056 44.6067 26.2716 44.6239 25.5814 45.3049L19.7905 51.0333L18.0515 48.7747C17.7691 48.3997 17.3433 48.1497 16.8727 48.0807C16.3976 48.0117 15.9136 48.1238 15.5281 48.3997C15.1426 48.6755 14.8916 49.0893 14.8244 49.5462C14.7571 50.0031 14.8826 50.4643 15.174 50.8307L18.1681 54.7056C18.4818 55.1108 18.9659 55.3651 19.4902 55.3953H19.6112C20.0908 55.3996 20.557 55.2099 20.8931 54.8781L28.1497 47.7058C28.8399 47.0247 28.8264 45.9342 28.1182 45.2704Z" fill="#171760"/>
<path d="M43.3442 64.8652H32.1434C31.1529 64.8652 30.3506 65.6368 30.3506 66.5893C30.3506 67.5419 31.1529 68.3135 32.1434 68.3135H43.3442C44.3347 68.3135 45.137 67.5419 45.137 66.5893C45.137 65.6368 44.3347 64.8652 43.3442 64.8652Z" fill="#171760"/>
<path d="M28.1186 59.9307C27.406 59.267 26.272 59.2799 25.5818 59.9609L19.7909 65.6893L18.0519 63.4307C17.4557 62.6807 16.3442 62.5298 15.5598 63.0944C14.7709 63.6548 14.6006 64.7238 15.1743 65.4867L18.1684 69.3659C18.4821 69.7711 18.9662 70.0211 19.4906 70.0555H19.6116C20.0912 70.0555 20.5573 69.8702 20.8935 69.5383L28.15 62.366C28.8402 61.685 28.8268 60.5945 28.1186 59.9307Z" fill="#171760"/>
<path d="M39.8527 82.9677C40.8433 82.9677 41.6456 82.1962 41.6456 81.2436C41.6456 80.2911 40.8433 79.5195 39.8527 79.5195H32.1434C31.1529 79.5195 30.3506 80.2911 30.3506 81.2436C30.3506 82.1962 31.1529 82.9677 32.1434 82.9677H39.8527Z" fill="#171760"/>
<path d="M25.5828 74.6198L19.7919 80.3438L18.0528 78.0895C17.4567 77.3395 16.3451 77.193 15.5608 77.7533C14.7719 78.318 14.6016 79.3827 15.1753 80.1456L18.1694 84.0248C18.4831 84.4299 18.9672 84.6799 19.4915 84.7144H19.6126C20.0921 84.7144 20.5583 84.5291 20.8944 84.1972L28.151 77.0249C28.8278 76.3396 28.8098 75.2576 28.1061 74.6025C27.398 73.9431 26.2774 73.9517 25.5828 74.6198Z" fill="#171760"/>
<path d="M77.198 71.6025C73.8813 69.8612 68.2159 72.8611 66.3154 74.1542C64.7243 75.1757 62.6446 75.1714 61.0624 74.1369C58.5614 72.4214 55.639 71.3612 52.5823 71.0681C51.7486 71.0465 50.9195 71.2319 50.1798 71.6026C47.7774 72.8611 46.648 76.6715 46.9168 82.6368C47.2395 89.654 49.2655 94.6366 52.9766 97.4294C55.9662 99.5156 59.6908 100.382 63.3391 99.8432C63.5677 99.7914 63.8098 99.7914 64.0383 99.8432C64.7376 99.9509 65.4458 100.003 66.154 99.9983C69.1255 100.046 72.0255 99.1449 74.401 97.4294C78.0944 94.6364 80.1381 89.6537 80.4608 82.6369C80.7297 76.6715 79.6005 72.8611 77.198 71.6025ZM52.9943 77.0852C52.3131 77.4473 51.2553 79.1369 52.1159 82.9989C52.21 83.4472 52.1159 83.9127 51.8559 84.2963C51.5915 84.6756 51.1836 84.9429 50.7174 85.0334C50.6009 85.0679 50.4799 85.0851 50.3589 85.0851C49.5073 85.0851 48.7722 84.5076 48.6019 83.7058C46.8629 75.8267 51.4167 73.9819 51.596 73.9129C52.5238 73.5595 53.5727 73.9905 53.9447 74.8784C54.2943 75.7405 53.8773 76.7146 52.9943 77.0852Z" fill="#171760"/>
<path d="M65.5625 64.2745C67.7497 64.1064 69.8115 63.2228 71.4072 61.7745C73.0701 60.0763 74.1681 57.9384 74.5626 55.6367C72.1692 55.9988 69.9416 57.0504 68.1801 58.6539C66.6696 60.1884 65.7462 62.171 65.5625 64.2745Z" fill="#171760"/>
</svg>
