<svg width="100" height="95" viewBox="0 0 100 95" fill="none" xmlns="http://www.w3.org/2000/svg">
<path d="M73.3253 63.2896V55.1248C73.3253 54.7071 73.1497 54.3065 72.8372 54.0111C72.5247 53.7157 72.1008 53.5498 71.6588 53.5498C71.2169 53.5498 70.793 53.7157 70.4805 54.0111C70.1679 54.3065 69.9924 54.7071 69.9924 55.1248V63.2896C69.021 63.6142 68.1794 64.2145 67.5828 65.0084C66.9862 65.8023 66.6637 66.751 66.6594 67.7248C66.6639 67.9933 66.6924 68.2609 66.7444 68.5249L59.1503 72.5522C58.9593 72.6534 58.7914 72.7892 58.656 72.9518C58.5205 73.1144 58.4203 73.3006 58.3611 73.4998C58.3018 73.699 58.2846 73.9073 58.3105 74.1128C58.3364 74.3182 58.4049 74.5169 58.512 74.6973C58.6191 74.8778 58.7628 75.0365 58.9349 75.1645C59.1069 75.2925 59.3039 75.3872 59.5147 75.4432C59.7255 75.4992 59.9458 75.5155 60.1632 75.491C60.3806 75.4665 60.5908 75.4018 60.7818 75.3006L68.3859 71.267C69.2876 72.0255 70.4517 72.4462 71.6588 72.4498C72.8367 72.4519 73.9774 72.06 74.8789 71.3434C75.7803 70.6268 76.3843 69.6318 76.5839 68.5346C76.7835 67.4375 76.5658 66.309 75.9694 65.349C75.373 64.389 74.4363 63.6594 73.3253 63.2896ZM71.6588 69.2998C71.3292 69.2998 71.007 69.2074 70.733 69.0344C70.4589 68.8613 70.2453 68.6153 70.1192 68.3275C69.9931 68.0397 69.9601 67.7231 70.0244 67.4175C70.0887 67.112 70.2474 66.8314 70.4805 66.6111C70.7135 66.3908 71.0105 66.2408 71.3337 66.1801C71.657 66.1193 71.9921 66.1505 72.2966 66.2697C72.6011 66.3889 72.8613 66.5908 73.0445 66.8498C73.2276 67.1088 73.3253 67.4133 73.3253 67.7248C73.3253 68.1425 73.1497 68.5431 72.8372 68.8385C72.5247 69.1339 72.1008 69.2998 71.6588 69.2998Z" fill="#171760"/>
<path d="M39.995 42.5244C41.0822 42.6141 42.1738 42.408 43.1411 41.9305C44.1085 41.4531 44.9111 40.724 45.4544 39.8295C48.3107 34.9124 42.983 25.1285 41.4015 22.7786C41.241 22.5678 41.0297 22.3962 40.7851 22.2778C40.5406 22.1594 40.2698 22.0977 39.995 22.0977C39.7202 22.0977 39.4494 22.1594 39.2049 22.2778C38.9603 22.3962 38.749 22.5678 38.5885 22.7786C37.007 25.1285 31.6793 34.9061 34.5356 39.8295C35.0789 40.724 35.8815 41.4531 36.8489 41.9305C37.8162 42.408 38.9078 42.6141 39.995 42.5244ZM39.995 26.8578C41.9848 30.6378 43.8696 36.0102 42.5314 38.3128C42.2681 38.768 41.7165 39.3744 39.995 39.3744C38.2735 39.3744 37.7219 38.768 37.4586 38.3128C36.1204 36.0102 38.0052 30.6441 39.995 26.8578Z" fill="#171760"/>
<path d="M71.6584 40.95C67.0063 40.9474 62.4259 42.0339 58.3266 44.1126V30.8952C58.3281 27.207 57.236 23.5923 55.1741 20.461C53.1122 17.3297 50.1631 14.8072 46.6613 13.1796V9.45H48.3277C48.7697 9.45 49.1936 9.28406 49.5061 8.98869C49.8186 8.69332 49.9942 8.29272 49.9942 7.875V1.575C49.9942 1.15728 49.8186 0.756677 49.5061 0.461307C49.1936 0.165937 48.7697 0 48.3277 0H31.663C31.221 0 30.7972 0.165937 30.4846 0.461307C30.1721 0.756677 29.9965 1.15728 29.9965 1.575V7.875C29.9965 8.29272 30.1721 8.69332 30.4846 8.98869C30.7972 9.28406 31.221 9.45 31.663 9.45H33.3295V13.1796C29.8277 14.8072 26.8785 17.3297 24.8166 20.461C22.7547 23.5923 21.6626 27.207 21.6642 30.8952V66.15H1.66647C1.2245 66.15 0.800623 66.3159 0.488099 66.6113C0.175574 66.9067 0 67.3073 0 67.725V80.325C0.00441091 84.0832 1.586 87.6862 4.39776 90.3436C7.20953 93.0011 11.0218 94.4958 14.9983 94.5H21.6642C23.0639 94.4972 24.4562 94.3084 25.8004 93.9393C26.3187 94.0325 26.8498 94.0431 27.3718 93.9708L33.5645 93.1345C34.5967 92.9956 35.6381 92.9256 36.6808 92.925H43.31C44.3521 92.9256 45.3929 92.9956 46.4246 93.1345L52.6189 93.9708C53.3278 94.0659 54.0501 94.0167 54.7373 93.8266C55.4245 93.6364 56.0607 93.3097 56.6035 92.8683C57.1775 92.3939 57.6285 91.8011 57.9216 91.1358C61.7039 93.1198 65.9166 94.2589 70.2368 94.4657C74.557 94.6725 78.87 93.9416 82.845 92.3289C86.82 90.7162 90.3514 88.2647 93.1686 85.1622C95.9857 82.0598 98.0137 78.3888 99.0971 74.4308C100.181 70.4727 100.29 66.3328 99.4186 62.3284C98.5467 58.324 96.7162 54.5615 94.0673 51.3293C91.4184 48.0971 88.0216 45.4812 84.1372 43.6821C80.2529 41.8829 75.9841 40.9483 71.6584 40.95ZM33.3295 3.15H46.6613V6.3H33.3295V3.15ZM43.3283 9.45V12.6H36.6624V9.45H43.3283ZM35.3459 15.75H44.6448C47.7305 17.0636 50.3488 19.1919 52.1848 21.8788C54.0207 24.5657 54.9961 27.6967 54.9936 30.8952V46.1207C53.7939 46.9377 52.6634 47.8419 51.6124 48.825H24.9971V30.8952C24.9946 27.6967 25.97 24.5657 27.806 21.8788C29.642 19.1919 32.2603 17.0636 35.3459 15.75ZM14.9983 91.35C11.9057 91.3463 8.94084 90.1835 6.75402 88.1167C4.56721 86.0499 3.33692 83.2479 3.33295 80.325V69.3H33.3295V80.325C33.3255 83.2479 32.0952 86.0499 29.9084 88.1167C27.7216 90.1835 24.7568 91.3463 21.6642 91.35H14.9983ZM36.6624 72.5303C37.6042 72.7111 38.451 73.194 39.0591 73.8972C39.6673 74.6005 39.9996 75.4808 39.9996 76.3891C39.9996 77.2973 39.6673 78.1777 39.0591 78.8809C38.451 79.5842 37.6042 80.0671 36.6624 80.2478V72.5303ZM54.4187 90.4853C54.2389 90.6358 54.0262 90.7469 53.7958 90.8109C53.5654 90.8749 53.3229 90.8901 53.0855 90.8555L46.8913 90.0176C45.7049 89.8584 44.5082 89.7774 43.31 89.775H36.6808C35.4804 89.7762 34.2815 89.8562 33.0928 90.0144L32.5046 90.0947C34.3826 88.2394 35.6903 85.9357 36.2875 83.4309C38.1572 83.3303 39.9186 82.5687 41.2217 81.2975C42.5249 80.0262 43.2745 78.3383 43.3217 76.5688C43.3689 74.7994 42.7103 73.0779 41.4766 71.7461C40.2429 70.4144 38.5245 69.5699 36.6624 69.3803V67.725C36.6624 67.3073 36.4869 66.9067 36.1743 66.6113C35.8618 66.3159 35.4379 66.15 34.996 66.15H24.9971V51.975H28.3301V63C28.3301 63.4177 28.5056 63.8183 28.8182 64.1137C29.1307 64.4091 29.5546 64.575 29.9965 64.575C30.4385 64.575 30.8624 64.4091 31.1749 64.1137C31.4874 63.8183 31.663 63.4177 31.663 63V51.975H48.7994C46.5984 54.8073 45.0121 58.0231 44.1319 61.4373C43.2517 64.8516 43.0949 68.3966 43.6707 71.8683C44.2465 75.34 45.5434 78.6698 47.4867 81.6657C49.43 84.6617 51.9813 87.2646 54.9936 89.3246C54.9907 89.5451 54.9379 89.7625 54.8387 89.9622C54.7395 90.1618 54.5963 90.3391 54.4187 90.4822V90.4853ZM71.6584 91.35C66.7144 91.35 61.8815 89.9644 57.7707 87.3685C53.66 84.7725 50.456 81.0828 48.5641 76.7659C46.6721 72.449 46.1771 67.6988 47.1416 63.116C48.1061 58.5332 50.4869 54.3236 53.9828 51.0196C57.4787 47.7156 61.9327 45.4655 66.7817 44.554C71.6307 43.6424 76.6567 44.1102 81.2244 45.8983C85.792 47.6865 89.696 50.7145 92.4427 54.5997C95.1894 58.4848 96.6555 63.0524 96.6555 67.725C96.648 73.9886 94.012 79.9936 89.3257 84.4226C84.6395 88.8516 78.2857 91.3429 71.6584 91.35Z" fill="#171760"/>
<path d="M90.406 57.5125C88.5981 54.563 86.0437 52.0838 82.9719 50.2975C82.9302 50.2676 82.9036 50.2234 82.8569 50.1967C82.8102 50.1699 82.7586 50.1699 82.7119 50.1478C79.4453 48.2949 75.7163 47.2956 71.9067 47.2524C68.0971 47.2093 64.3438 48.1237 61.0311 49.9021C61.0044 49.9147 60.9728 49.9147 60.9444 49.9289C60.9161 49.9431 60.8861 49.984 60.8511 50.0061C57.7317 51.7148 55.1097 54.1284 53.2203 57.0306C53.1821 57.0654 53.1459 57.1022 53.112 57.1408C53.0853 57.1849 53.0837 57.2338 53.0604 57.2779C51.0991 60.3647 50.0414 63.8888 49.9957 67.4892C49.95 71.0896 50.918 74.6367 52.8004 77.767C52.8137 77.7938 52.8137 77.8237 52.8287 77.8505C52.8654 77.9017 52.9054 77.9506 52.9487 77.997C54.754 80.9205 57.2942 83.3782 60.3445 85.1522C60.3862 85.1821 60.4128 85.2262 60.4595 85.253C60.525 85.2839 60.5923 85.3113 60.6611 85.3349C63.9184 87.1696 67.6312 88.1573 71.4227 88.198C75.2143 88.2387 78.9498 87.3308 82.2503 85.5664C82.2903 85.5491 82.332 85.5412 82.372 85.5208C82.412 85.5003 82.4303 85.4656 82.4653 85.4436C85.5601 83.7469 88.1662 81.3574 90.0544 78.4852C90.1089 78.43 90.159 78.371 90.2044 78.3088C90.2311 78.2647 90.2327 78.2159 90.2561 78.1718C92.2174 75.085 93.275 71.5609 93.3207 67.9605C93.3664 64.3601 92.3984 60.813 90.516 57.6826C90.5027 57.6559 90.5027 57.6259 90.4877 57.5992C90.4727 57.5724 90.4294 57.544 90.406 57.5125ZM82.127 81.925L81.8104 81.4006C81.7058 81.2146 81.5628 81.0504 81.3899 80.9176C81.217 80.7847 81.0176 80.6861 80.8036 80.6273C80.5897 80.5686 80.3654 80.551 80.1441 80.5756C79.9228 80.6002 79.709 80.6665 79.5153 80.7706C79.3216 80.8747 79.1519 81.0144 79.0164 81.1815C78.8808 81.3486 78.782 81.5398 78.726 81.7436C78.6699 81.9474 78.6577 82.1598 78.69 82.3681C78.7223 82.5765 78.7985 82.7766 78.914 82.9567L79.229 83.4827C77.3642 84.2909 75.3677 84.7936 73.3247 84.9695V84.3568C73.3247 83.9391 73.1491 83.5385 72.8366 83.2432C72.5241 82.9478 72.1002 82.7818 71.6582 82.7818C71.2162 82.7818 70.7923 82.9478 70.4798 83.2432C70.1673 83.5385 69.9917 83.9391 69.9917 84.3568V84.9695C67.7903 84.779 65.6442 84.21 63.6591 83.2906L63.9924 82.7771C64.2209 82.4196 64.2898 81.9908 64.1838 81.5853C64.0779 81.1798 63.8058 80.8306 63.4275 80.6146C63.0492 80.3987 62.5955 80.3336 62.1665 80.4337C61.7374 80.5339 61.3679 80.791 61.1394 81.1486L60.8061 81.6573C59.1906 80.5347 57.7795 79.1707 56.6283 77.619L57.1832 77.3197C57.5541 77.1071 57.8227 76.7662 57.9318 76.3694C58.0409 75.9726 57.982 75.5512 57.7677 75.1948C57.5533 74.8383 57.2003 74.575 56.7837 74.4606C56.3671 74.3463 55.9198 74.39 55.5367 74.5824L54.9801 74.8801C54.1268 73.1174 53.5965 71.2304 53.412 69.2998H54.0602C54.5022 69.2998 54.9261 69.1339 55.2386 68.8385C55.5511 68.5432 55.7267 68.1426 55.7267 67.7248C55.7267 67.3071 55.5511 66.9065 55.2386 66.6112C54.9261 66.3158 54.5022 66.1498 54.0602 66.1498H53.412C53.6136 64.0693 54.2156 62.041 55.1884 60.1649L55.7317 60.4799C55.919 60.5868 56.1268 60.6578 56.3432 60.6888C56.5596 60.7199 56.7803 60.7103 56.9927 60.6608C57.2052 60.6112 57.4053 60.5225 57.5815 60.3999C57.7577 60.2772 57.9066 60.123 58.0198 59.9459C58.1329 59.7689 58.2081 59.5725 58.2409 59.368C58.2738 59.1635 58.2637 58.9549 58.2112 58.7541C58.1587 58.5533 58.0649 58.3642 57.9352 58.1977C57.8054 58.0311 57.6422 57.8904 57.4548 57.7834L56.9166 57.4684C58.1044 55.9416 59.5476 54.608 61.1894 53.5199L61.506 54.0444C61.731 54.3949 62.0918 54.6487 62.5116 54.7519C62.9315 54.855 63.3773 54.7994 63.7544 54.5968C64.1316 54.3942 64.4102 54.0605 64.5312 53.6668C64.6522 53.2731 64.606 52.8503 64.4024 52.4883L64.0874 51.9622C65.9525 51.1557 67.949 50.6546 69.9917 50.4802V51.0928C69.9917 51.5106 70.1673 51.9112 70.4798 52.2065C70.7923 52.5019 71.2162 52.6678 71.6582 52.6678C72.1002 52.6678 72.5241 52.5019 72.8366 52.2065C73.1491 51.9112 73.3247 51.5106 73.3247 51.0928V50.4802C75.5261 50.6707 77.6722 51.2397 79.6573 52.1591L79.324 52.6726C79.0955 53.0301 79.0266 53.4588 79.1326 53.8644C79.2385 54.2699 79.5106 54.6191 79.8889 54.8351C80.2672 55.051 80.7209 55.1161 81.15 55.016C81.579 54.9158 81.9485 54.6587 82.177 54.3011L82.5103 53.7924C84.1258 54.915 85.5369 56.279 86.6881 57.8307L86.1332 58.1299C85.9364 58.2288 85.7627 58.3639 85.6221 58.5273C85.4816 58.6908 85.3772 58.8792 85.315 59.0814C85.2529 59.2836 85.2343 59.4956 85.2603 59.7047C85.2864 59.9139 85.3565 60.116 85.4666 60.299C85.5767 60.4821 85.7246 60.6425 85.9014 60.7706C86.0783 60.8987 86.2805 60.992 86.4961 61.045C86.7118 61.098 86.9365 61.1096 87.1569 61.079C87.3774 61.0485 87.5892 60.9765 87.7797 60.8673L88.3363 60.5696C89.1896 62.3323 89.7199 64.2193 89.9044 66.1498H89.2562C88.8142 66.1498 88.3903 66.3158 88.0778 66.6112C87.7653 66.9065 87.5897 67.3071 87.5897 67.7248C87.5897 68.1426 87.7653 68.5432 88.0778 68.8385C88.3903 69.1339 88.8142 69.2998 89.2562 69.2998H89.9044C89.7028 71.3804 89.1008 73.4087 88.128 75.2848L87.5847 74.9698C87.2064 74.7539 86.7528 74.6888 86.3237 74.7889C85.8946 74.8891 85.5251 75.1462 85.2966 75.5038C85.0681 75.8613 84.9993 76.29 85.1052 76.6956C85.2112 77.1011 85.4832 77.4503 85.8616 77.6662L86.3998 77.9812C85.2117 79.507 83.7685 80.838 82.127 81.925Z" fill="#171760"/>
<path d="M4.21883 61.2975C4.31676 61.4825 4.45229 61.6474 4.61768 61.783C4.78307 61.9185 4.97509 62.0219 5.18276 62.0872C5.39043 62.1526 5.60969 62.1787 5.82802 62.164C6.04635 62.1493 6.25948 62.0941 6.45524 62.0015C6.65099 61.9089 6.82554 61.7808 6.96892 61.6245C7.1123 61.4682 7.2217 61.2867 7.29087 61.0905C7.36004 60.8942 7.38763 60.687 7.37207 60.4806C7.3565 60.2743 7.29808 60.0729 7.20015 59.8878C6.77613 59.0924 6.5962 58.2006 6.68072 57.3135C6.76525 56.4264 7.11086 55.5794 7.67843 54.8683C8.62093 53.6901 9.19515 52.2858 9.33595 50.8148C9.47675 49.3438 9.17849 47.8649 8.475 46.546C8.37822 46.3594 8.24331 46.1927 8.07803 46.0555C7.91276 45.9184 7.72039 45.8135 7.51203 45.747C7.30367 45.6804 7.08343 45.6535 6.86401 45.6678C6.6446 45.6821 6.43034 45.7373 6.2336 45.8302C6.03686 45.9231 5.86153 46.0519 5.71771 46.2092C5.57389 46.3664 5.46444 46.5491 5.39566 46.7465C5.32687 46.9439 5.30012 47.1523 5.31695 47.3595C5.33377 47.5668 5.39384 47.7689 5.49368 47.9541C5.91752 48.7505 6.09719 49.6431 6.01238 50.5309C5.92756 51.4188 5.58165 52.2665 5.01374 52.9783C4.07216 54.1563 3.49861 55.5601 3.35811 57.0305C3.21761 58.5009 3.51578 59.9791 4.21883 61.2975Z" fill="#171760"/>
<path d="M11.5224 61.2975C11.6203 61.4825 11.7558 61.6474 11.9212 61.783C12.0866 61.9185 12.2786 62.0219 12.4863 62.0872C12.694 62.1526 12.9132 62.1787 13.1316 62.164C13.3499 62.1493 13.563 62.0941 13.7588 62.0015C13.9545 61.9089 14.1291 61.7808 14.2725 61.6245C14.4158 61.4682 14.5252 61.2867 14.5944 61.0905C14.6636 60.8942 14.6912 60.687 14.6756 60.4806C14.66 60.2743 14.6016 60.0729 14.5037 59.8878C14.08 59.092 13.9003 58.1999 13.9852 57.3125C14.07 56.4252 14.4158 55.578 14.9836 54.8667C15.9252 53.6884 16.4987 52.2844 16.6392 50.8137C16.7797 49.3431 16.4816 47.8647 15.7786 46.546C15.6818 46.3594 15.5469 46.1927 15.3816 46.0555C15.2163 45.9184 15.0239 45.8135 14.8156 45.747C14.6072 45.6804 14.387 45.6535 14.1676 45.6678C13.9481 45.6821 13.7339 45.7373 13.5371 45.8302C13.3404 45.9231 13.1651 46.0519 13.0213 46.2092C12.8774 46.3664 12.768 46.5491 12.6992 46.7465C12.6304 46.9439 12.6037 47.1523 12.6205 47.3595C12.6373 47.5668 12.6974 47.7689 12.7972 47.9541C13.2213 48.75 13.4013 49.6423 13.3168 50.5299C13.2323 51.4176 12.8866 52.2651 12.319 52.9767C11.3768 54.1548 10.8027 55.5588 10.6619 57.0295C10.5212 58.5002 10.8192 59.9787 11.5224 61.2975Z" fill="#171760"/>
</svg>
