<svg width="96" height="100" viewBox="0 0 96 100" fill="none" xmlns="http://www.w3.org/2000/svg">
<path d="M37.4342 43.0712H30.1133C29.202 43.0712 28.4053 43.6926 28.1896 44.5785L24.0339 61.4249C23.8886 62.0155 24.0207 62.6457 24.3993 63.1262C24.7734 63.6066 25.3501 63.8887 25.962 63.8887H27.0626L24.5357 74.445C24.3068 75.3971 24.8086 76.3711 25.7111 76.7458C25.9576 76.8472 26.213 76.8957 26.4639 76.8957C27.1418 76.8957 27.7934 76.5475 28.1631 75.9392L38.341 59.0929C38.7108 58.4803 38.724 57.7133 38.3718 57.0919C38.0196 56.466 37.3593 56.0826 36.6462 56.0826H35.374L39.3008 45.7687C39.5341 45.1605 39.4504 44.4729 39.0807 43.9352C38.7109 43.3974 38.099 43.0757 37.4475 43.0757L37.4342 43.0712ZM30.8484 59.1852C31.2182 59.7229 31.8301 60.0447 32.4816 60.0447H33.1155L31.3503 62.9669L31.4955 62.3674C31.6364 61.7768 31.4999 61.151 31.1257 60.6749C30.7516 60.1989 30.1749 59.9212 29.5674 59.9212H28.4844L31.6628 47.0467H34.5551L30.6283 57.3605C30.3949 57.9688 30.4786 58.6563 30.8484 59.1941L30.8484 59.1852ZM92.6727 65.1532C90.4055 62.8833 87.1963 62.1251 84.2996 62.8745C83.0803 55.8354 76.9392 50.4626 69.5657 50.4626C67.2369 50.4626 64.9566 51.0091 62.9007 52.036V31.5057C62.9007 23.5013 56.3943 16.9871 48.4 16.9871H47.7045V13.8268H48.0126C49.932 13.8268 51.4992 12.2622 51.4992 10.3359V3.4909C51.4992 1.5692 49.9365 0 48.0126 0H15.3881C13.4687 0 11.9015 1.56469 11.9015 3.4909V10.3359C11.9015 12.2576 13.4642 13.8268 15.3881 13.8268H15.6962V16.9871H15.0007C7.0062 16.9871 0.5 23.5016 0.5 31.5057V88.2585C0.5 94.4952 5.57135 99.5725 11.8001 99.5725H47.0708C47.9204 99.8501 48.8272 100 49.7693 100H70.5122C75.3326 100 79.2506 96.0728 79.2506 91.2509C79.2506 91.1627 79.2462 91.0746 79.2418 90.9864L92.682 77.5297C96.0893 74.1182 96.0893 68.5645 92.682 65.1527L92.6727 65.1532ZM71.5465 54.619C76.5034 55.5269 80.3069 59.7715 80.5447 64.9372C80.4655 65.0077 80.3906 65.0826 80.3158 65.1576L71.551 73.9331V54.6191L71.5465 54.619ZM67.5802 54.619V71.1651L58.9607 62.535C60.0745 58.48 63.473 55.3859 67.5802 54.619ZM45.4454 73.7525L47.0611 75.3701C46.163 77.8251 43.821 79.4912 41.1621 79.4912H22.2189C18.7544 79.4912 15.9326 76.6659 15.9326 73.1971V45.6799C15.9326 42.2111 18.7544 39.3859 22.2189 39.3859H41.1621C44.6266 39.3859 47.4484 42.2111 47.4484 45.6799V59.8769C46.7308 60.2691 46.0529 60.7672 45.4454 61.3754C42.0382 64.7869 42.0382 70.3407 45.4454 73.7525ZM48.2497 64.1879C49.1785 63.2578 50.4024 62.7906 51.6262 62.7906C52.85 62.7906 54.0694 63.2578 55.0027 64.1879L60.9324 70.1249L54.1794 76.8862L48.2497 70.9492C46.3876 69.0848 46.3876 66.0523 48.2497 64.1879ZM51.4149 58.8238V49.6603H58.9295V54.9097C57.534 56.3246 56.4335 57.9951 55.6938 59.8199C54.36 59.1191 52.8808 58.7885 51.4105 58.8238L51.4149 58.8238ZM15.8625 3.98015H47.5235V9.85989H15.8625V3.98015ZM43.7323 13.8312V16.9915H19.6525V13.8312H43.7323ZM4.45531 31.5058C4.45531 25.6922 9.17888 20.9583 14.9899 20.9583H48.3943C54.2051 20.9583 58.9288 25.6876 58.9288 31.5058V45.6847H51.4142V45.6758C51.4142 40.0165 46.8139 35.4104 41.1614 35.4104H22.2182C16.5658 35.4104 11.9654 40.0164 11.9654 45.6758V45.6847H4.45081V31.5058H4.45531ZM4.45531 49.661H11.9699V69.2221H4.45531V49.661ZM42.1782 95.6019H11.7896C7.74403 95.6019 4.45554 92.3094 4.45554 88.2588V73.193H11.9701V73.2018C11.9701 78.8612 16.5704 83.4673 22.2229 83.4673H41.1661C44.8948 83.4673 48.2404 81.4574 50.0366 78.3499L54.1835 82.5019H49.7592C44.9389 82.5019 41.0209 86.4292 41.0209 91.2511C41.0209 92.8334 41.4435 94.3189 42.183 95.6015L42.1782 95.6019ZM58.1451 96.0294H49.7589C47.1264 96.0294 44.9869 93.8874 44.9869 91.2515C44.9869 88.6158 47.1263 86.4736 49.7589 86.4736H58.1451V96.0338V96.0294ZM59.7871 82.4982L56.9829 79.6905L63.7359 72.9292L68.138 77.3368L65.642 79.8359C64.876 80.6028 64.2597 81.5108 63.8239 82.4981L59.7871 82.4982ZM70.4977 96.0294H62.1115V86.4692H70.4977C73.1302 86.4692 75.2697 88.6113 75.2697 91.2471C75.2697 93.8829 73.1303 96.025 70.4977 96.025V96.0294ZM77.9375 86.6632C76.3967 84.1685 73.6365 82.498 70.4977 82.498H68.5959L74.3804 76.7064L81.1334 83.4677L77.9419 86.6632H77.9375ZM89.8675 74.723L83.9378 80.66L77.1848 73.8987L83.1145 67.9616C84.9766 66.0973 88.0053 66.0973 89.8675 67.9616C91.7296 69.826 91.7296 72.8585 89.8675 74.723Z" fill="#171760"/>
</svg>
