<svg width="90" height="90" viewBox="0 0 90 90" fill="none" xmlns="http://www.w3.org/2000/svg">
<path d="M84.3368 44.9777C84.3368 46.032 84.2991 47.0863 84.2239 48.1405C84.1863 48.6677 84.1298 49.176 84.0734 49.7031C84.0358 49.9667 84.0169 50.2114 83.9793 50.475C84.0734 49.8349 83.904 50.8891 83.8852 51.0021C83.5654 53.0165 83.095 55.0121 82.4741 56.9511C82.1919 57.836 81.8909 58.702 81.5522 59.568C81.4581 59.7939 81.3641 60.0386 81.27 60.2645C80.9689 61.0364 81.5146 59.7562 81.1571 60.5093C80.9125 61.0364 80.6867 61.5635 80.4233 62.0907C79.5578 63.8791 78.5607 65.5923 77.4318 67.2302C77.1496 67.6444 76.8673 68.0397 76.5851 68.4351C76.4346 68.6421 76.2841 68.8304 76.1524 69.0375C76.0959 69.1128 75.8137 69.4517 76.1336 69.0563C75.4751 69.8847 74.7789 70.713 74.064 71.5037C72.7281 72.9533 71.2982 74.3088 69.7742 75.5701C69.5861 75.7207 69.3979 75.8714 69.191 76.0408C68.5513 76.5491 69.6425 75.7207 68.984 76.2102C68.5889 76.5114 68.1938 76.7938 67.7799 77.0762C66.9708 77.641 66.143 78.187 65.2963 78.6953C64.4496 79.2036 63.5842 79.693 62.6999 80.1449C62.286 80.352 61.8909 80.559 61.4769 80.7473C61.2888 80.8414 61.1006 80.9167 60.9125 81.0109C60.8184 81.0485 59.8589 81.4627 60.4421 81.218C58.5795 82.0087 56.6604 82.6299 54.7225 83.1382C53.7253 83.383 52.7281 83.6089 51.7309 83.7971C51.2229 83.8913 50.7149 83.9666 50.2069 84.0419C50.8466 83.9477 50 84.0607 49.9247 84.0795C49.6613 84.1172 49.4167 84.136 49.1533 84.1548C46.9708 84.3807 44.7695 84.4184 42.587 84.2866C40.1787 84.1548 39.238 84.023 36.9238 83.5336C34.9482 83.1194 32.9915 82.5546 31.0912 81.8392C30.6585 81.6886 30.2257 81.5192 29.8118 81.3309C29.6801 81.2744 29.1721 81.0485 29.6801 81.2744C29.4543 81.1803 29.2285 81.0674 29.0028 80.9732C28.0244 80.5214 27.0649 80.0507 26.1053 79.5236C24.3744 78.5635 22.6998 77.4904 21.1194 76.3044C21.063 76.2667 20.4233 75.7584 20.9125 76.1537C20.7243 76.0031 20.5173 75.8525 20.3292 75.6831C19.9717 75.4007 19.6331 75.0995 19.2944 74.8171C18.523 74.1394 17.7704 73.4428 17.0554 72.7086C16.3593 72.012 15.682 71.2778 15.0423 70.5436C14.7789 70.2235 14.5155 69.9223 14.2521 69.6023C14.1015 69.414 13.951 69.2257 13.7817 69.0187C14.158 69.5081 13.5371 68.6986 13.4806 68.6045C12.2953 67.0043 11.2417 65.3476 10.301 63.5967C9.8306 62.7119 9.37905 61.8271 8.96512 60.9234C8.87105 60.6975 8.75816 60.4716 8.66409 60.2457C8.90868 60.8293 8.58883 60.0574 8.57001 60.001C8.38187 59.5303 8.19372 59.0597 8.02439 58.589C7.32824 56.6876 6.78262 54.7297 6.36869 52.7341C6.27462 52.2258 6.18055 51.7363 6.08647 51.228C6.04884 50.9833 6.01121 50.7197 5.97359 50.4561C5.84188 49.609 6.03003 51.0397 5.93596 50.1738C5.80425 49.1007 5.71018 48.0087 5.65374 46.9168C5.55966 44.7707 5.61611 42.6057 5.84188 40.4783C5.8607 40.2712 5.87951 40.0453 5.91714 39.8382C5.93596 39.6876 6.01122 39.1228 5.93596 39.6876C6.01122 39.1793 6.08647 38.671 6.18055 38.1627C6.36869 37.0708 6.61329 35.9977 6.89551 34.9246C7.1401 34.021 7.4035 33.1361 7.68572 32.2513C7.83624 31.7807 8.00557 31.31 8.19372 30.8394C8.28779 30.6134 8.36305 30.3687 8.45712 30.1428C8.49475 30.0487 8.90868 29.0885 8.64527 29.6533C9.43549 27.8272 10.3574 26.0575 11.3922 24.3632C11.8626 23.5913 12.3706 22.8383 12.8786 22.0852C13.1608 21.6899 13.4618 21.2757 13.7441 20.8804C14.2332 20.2215 13.3866 21.3134 13.9134 20.6733C14.1203 20.4097 14.3273 20.165 14.5343 19.9014C15.7949 18.3953 17.1683 16.9645 18.6171 15.6467C19.3508 14.9878 20.1034 14.3477 20.8748 13.7453C20.3856 14.1406 21.0253 13.6323 21.0818 13.5947C21.2135 13.5005 21.3452 13.4064 21.4769 13.2935C21.9473 12.9546 22.4176 12.6157 22.888 12.2957C24.5437 11.1849 26.2558 10.206 28.0432 9.33998C28.4948 9.11406 28.9463 8.9258 29.3979 8.71872C30.1505 8.37985 28.8711 8.9258 29.6425 8.60576C29.8682 8.51163 30.1128 8.4175 30.3386 8.32337C31.2794 7.96567 32.2201 7.6268 33.1796 7.32559C35.174 6.70433 37.206 6.2525 39.2568 5.93246C39.3885 5.91363 39.9717 5.83833 39.4073 5.91363C39.6707 5.87598 39.9153 5.85715 40.1787 5.8195C40.7055 5.76302 41.2135 5.70654 41.7403 5.66889C42.888 5.57476 44.0545 5.53711 45.2022 5.55593C47.761 5.57476 49.8118 5.76302 52.0508 6.19602C54.3838 6.64785 56.698 7.28793 58.9181 8.11628C60.0658 8.54928 60.3669 8.68106 61.4957 9.20819C62.6434 9.75415 63.7535 10.3378 64.8448 10.9778C65.7667 11.5238 66.651 12.0886 67.5353 12.7098C68.683 13.5194 69.1157 13.8394 70.1693 14.7431C77.3001 20.8051 81.9285 28.7497 83.6406 37.9933C84.1298 40.2147 84.318 42.4551 84.3368 44.9777C84.3368 46.4462 85.635 47.877 87.159 47.8017C88.683 47.7264 89.9812 46.5591 89.9812 44.9777C89.9436 34.341 86.1806 24.1185 79.3697 15.9668C72.8786 8.19159 63.603 2.69437 53.65 0.811762C44.1486 -0.995542 34.365 0.228154 25.6161 4.35107C17.808 8.02215 11.1476 14.103 6.6321 21.4451C1.96606 29.0321 -0.366966 38.0498 0.0469576 46.9545C0.460881 55.7839 3.4336 64.4816 8.72053 71.579C14.0451 78.7517 21.2511 84.1925 29.6425 87.2988C38.0903 90.4239 47.5541 90.8193 56.2653 88.579C64.6566 86.414 72.4271 81.7263 78.2596 75.3066C84.1298 68.8304 88.1374 60.6599 89.4356 51.9999C89.7742 49.6654 89.9812 47.3498 90 44.9966C90 43.5281 88.7018 42.0974 87.1778 42.1727C85.6162 42.2103 84.3368 43.3964 84.3368 44.9777Z" fill="#171760"/>
<path d="M73.4237 13.7828C71.4481 15.7595 69.4914 17.7175 67.5159 19.6942C62.7557 24.4572 58.0144 29.2014 53.2543 33.9644C47.5158 39.7063 41.7962 45.4294 36.0577 51.1714C31.1094 56.1227 26.1423 61.0927 21.1941 66.044C18.7858 68.4537 16.2834 70.807 13.9316 73.3109C13.894 73.3485 13.8563 73.3862 13.8375 73.405C12.7651 74.4781 12.7651 76.3231 13.8375 77.3961C14.91 78.4692 16.7538 78.4692 17.8262 77.3961C19.8018 75.4194 21.7585 73.4615 23.7341 71.4847C28.4942 66.7217 33.2355 61.9776 37.9956 57.2146C43.7341 51.4726 49.4538 45.7495 55.1922 40.0075C60.1405 35.0563 65.1076 30.0862 70.0558 25.1349C72.4641 22.7252 74.9665 20.3719 77.3183 17.8681C77.3559 17.8304 77.3936 17.7928 77.4124 17.7739C78.4848 16.7008 78.4848 14.8559 77.4124 13.7828C76.34 12.6909 74.5149 12.6909 73.4237 13.7828Z" fill="#171760"/>
</svg>
