<svg width="40" height="40" viewBox="0 0 40 40" fill="none" xmlns="http://www.w3.org/2000/svg">
<path d="M19.2024 6.43819C19.2707 6.20585 19.5965 6.19665 19.6778 6.42477L22.8037 15.195C22.84 15.297 22.938 15.364 23.0462 15.3609L32.3532 15.0982C32.5952 15.0913 32.7046 15.3983 32.5128 15.5461L25.1378 21.2292C25.052 21.2953 25.0185 21.4091 25.0549 21.5111L28.1808 30.2813C28.2621 30.5094 28.004 30.7083 27.8041 30.5716L20.1202 25.3137C20.0309 25.2525 19.9123 25.2559 19.8265 25.322L12.4515 31.005C12.2596 31.1529 11.9907 30.9689 12.059 30.7365L14.6851 21.8039C14.7156 21.7 14.6758 21.5882 14.5864 21.5271L6.90252 16.2692C6.70265 16.1324 6.79456 15.8198 7.03664 15.813L16.3436 15.5502C16.4518 15.5471 16.5458 15.4747 16.5764 15.3708L19.2024 6.43819Z" fill="#A75809"/>
<path d="M15.3616 7.18657C15.3599 6.94439 15.6691 6.84146 15.8128 7.03635L21.3399 14.529C21.4042 14.6161 21.5173 14.652 21.6201 14.6178L30.4539 11.6765C30.6837 11.6 30.8771 11.8623 30.7362 12.0592L25.3183 19.6311C25.2552 19.7192 25.2561 19.8378 25.3204 19.925L30.8475 27.4176C30.9912 27.6125 30.8016 27.8775 30.5707 27.8044L21.6952 24.9914C21.592 24.9587 21.4794 24.9962 21.4164 25.0843L15.9984 32.6562C15.8575 32.8531 15.5469 32.7547 15.5451 32.5125L15.4777 23.2021C15.4769 23.0938 15.4064 22.9983 15.3032 22.9656L6.42765 20.1527C6.19679 20.0795 6.19443 19.7537 6.42421 19.6772L15.2581 16.736C15.3608 16.7017 15.4299 16.6053 15.4291 16.4969L15.3616 7.18657Z" fill="#A75809"/>
<path d="M11.4725 9.34139C11.3916 9.11313 11.6501 8.91466 11.8497 9.05175L19.5249 14.3223C19.6142 14.3836 19.7328 14.3805 19.8187 14.3145L27.2031 8.64367C27.3952 8.49616 27.6638 8.68062 27.5951 8.91286L24.9542 17.8411C24.9235 17.945 24.9632 18.0568 25.0524 18.1181L32.7276 23.3887C32.9273 23.5258 32.8349 23.8383 32.5928 23.8447L23.2854 24.0921C23.1772 24.0949 23.0831 24.1672 23.0523 24.2711L20.4115 33.1993C20.3428 33.4316 20.0171 33.4402 19.9361 33.212L16.8247 24.4366C16.7885 24.3345 16.6907 24.2674 16.5825 24.2702L7.27512 24.5176C7.03302 24.5241 6.92413 24.2169 7.1162 24.0694L14.5006 18.3986C14.5865 18.3326 14.6201 18.2188 14.584 18.1167L11.4725 9.34139Z" fill="#A75809"/>
<path d="M8.78232 12.2278C8.63839 12.0331 8.82777 11.7679 9.0587 11.8409L17.9367 14.6461C18.0399 14.6787 18.1525 14.6412 18.2154 14.553L23.6268 6.97644C23.7676 6.77936 24.0783 6.87754 24.0803 7.11971L24.1558 16.43C24.1566 16.5383 24.2272 16.6338 24.3304 16.6664L33.2084 19.4716C33.4393 19.5446 33.442 19.8704 33.2123 19.9471L24.3809 22.896C24.2782 22.9303 24.2093 23.0269 24.2101 23.1352L24.2856 32.4455C24.2876 32.6877 23.9785 32.7909 23.8346 32.5961L18.301 25.1083C18.2367 25.0212 18.1235 24.9854 18.0208 25.0197L9.18948 27.9686C8.95977 28.0453 8.76611 27.7832 8.90687 27.5861L14.3183 20.0095C14.3812 19.9214 14.3802 19.8028 14.3159 19.7157L8.78232 12.2278Z" fill="#A75809"/>
<path d="M14.6274 21.4062L17.9395 23.9902L25.6504 17.0304" stroke="#F8F2EC" stroke-width="2"/>
</svg>
