<svg width="40" height="40" viewBox="0 0 40 40" fill="none" xmlns="http://www.w3.org/2000/svg">
<path d="M19.1315 6.44163C19.1985 6.20892 19.5242 6.198 19.6067 6.42569L22.7791 15.1792C22.816 15.281 22.9143 15.3475 23.0225 15.3439L32.3279 15.0318C32.57 15.0236 32.681 15.33 32.4899 15.4788L25.1452 21.2009C25.0597 21.2675 25.0269 21.3815 25.0638 21.4833L28.2361 30.2368C28.3187 30.4645 28.0616 30.6648 27.861 30.5291L20.1493 25.312C20.0596 25.2513 19.9411 25.2553 19.8556 25.3218L12.5109 31.0439C12.3198 31.1928 12.0499 31.0102 12.117 30.7775L14.6957 21.8311C14.7257 21.727 14.6852 21.6155 14.5955 21.5548L6.88385 16.3377C6.68326 16.202 6.77351 15.8889 7.01556 15.8808L16.321 15.5687C16.4292 15.565 16.5228 15.4921 16.5528 15.388L19.1315 6.44163Z" fill="#AA992C"/>
<path d="M15.2945 7.2105C15.2915 6.96834 15.6001 6.86377 15.7449 7.05789L21.3116 14.5211C21.3764 14.6079 21.4897 14.6432 21.5922 14.6084L30.4104 11.6204C30.6397 11.5427 30.8346 11.8039 30.6947 12.0016L25.317 19.6021C25.2544 19.6905 25.2559 19.8091 25.3207 19.896L30.8874 27.3592C31.0322 27.5533 30.844 27.8193 30.6127 27.7474L21.7224 24.9815C21.619 24.9494 21.5066 24.9874 21.444 25.0758L16.0663 32.6764C15.9264 32.8741 15.6153 32.7773 15.6123 32.5351L15.4954 23.2252C15.4941 23.1169 15.4232 23.0218 15.3197 22.9896L6.4294 20.2238C6.19815 20.1519 6.19406 19.826 6.42344 19.7483L15.2416 16.7603C15.3442 16.7256 15.4127 16.6287 15.4113 16.5204L15.2945 7.2105Z" fill="#AA992C"/>
<path d="M11.4171 9.38572C11.335 9.15789 11.5924 8.95806 11.7927 9.09409L19.4958 14.3239C19.5854 14.3847 19.704 14.381 19.7895 14.3145L27.1437 8.6046C27.335 8.45608 27.6046 8.63911 27.5372 8.87171L24.9437 17.8138C24.9135 17.9179 24.9538 18.0295 25.0434 18.0903L32.7464 23.3201C32.9468 23.4562 32.856 23.7691 32.614 23.7768L23.3081 24.0736C23.1998 24.077 23.1061 24.1498 23.0759 24.2538L20.4824 33.1959C20.415 33.4285 20.0893 33.4389 20.0072 33.2111L16.8493 24.4523C16.8125 24.3505 16.7144 24.2838 16.6061 24.2873L7.30023 24.584C7.05817 24.5917 6.94765 24.2852 7.13894 24.1366L14.4932 18.4267C14.5787 18.3603 14.6118 18.2463 14.575 18.1445L11.4171 9.38572Z" fill="#AA992C"/>
<path d="M8.74199 12.2865C8.59703 12.0925 8.78501 11.8264 9.01632 11.8981L17.909 14.6562C18.0125 14.6883 18.1248 14.6501 18.1873 14.5617L23.5584 6.95649C23.6982 6.75867 24.0094 6.8552 24.0126 7.09736L24.1375 16.4072C24.1389 16.5155 24.21 16.6105 24.3134 16.6426L33.2061 19.4007C33.4374 19.4725 33.4418 19.7983 33.2125 19.8762L24.397 22.8718C24.2944 22.9067 24.226 23.0036 24.2274 23.1119L24.3523 32.4217C24.3555 32.6638 24.047 32.7687 23.902 32.5747L18.3289 25.1163C18.264 25.0295 18.1507 24.9944 18.0482 25.0292L9.23261 28.0249C9.00331 28.1028 8.80826 27.8418 8.94797 27.6439L14.3191 20.0388C14.3816 19.9503 14.38 19.8317 14.3152 19.7449L8.74199 12.2865Z" fill="#AA992C"/>
<path d="M14.636 21.4333L17.9616 24L25.636 17" stroke="#F8F2EC" stroke-width="2"/>
</svg>
