<svg width="40" height="40" viewBox="0 0 40 40" fill="none" xmlns="http://www.w3.org/2000/svg">
<path d="M19.1315 6.44163C19.1985 6.20892 19.5242 6.198 19.6067 6.42569L22.7791 15.1792C22.816 15.281 22.9143 15.3475 23.0225 15.3439L32.3279 15.0318C32.57 15.0236 32.681 15.33 32.4899 15.4788L25.1452 21.2009C25.0597 21.2675 25.0269 21.3815 25.0638 21.4833L28.2361 30.2368C28.3187 30.4645 28.0616 30.6648 27.861 30.5291L20.1493 25.312C20.0596 25.2513 19.9411 25.2553 19.8556 25.3218L12.5109 31.0439C12.3198 31.1928 12.0499 31.0102 12.117 30.7775L14.6957 21.8311C14.7257 21.727 14.6852 21.6154 14.5955 21.5548L6.88385 16.3377C6.68326 16.202 6.77351 15.8889 7.01556 15.8808L16.321 15.5687C16.4292 15.565 16.5228 15.4921 16.5528 15.388L19.1315 6.44163Z" fill="#750021"/>
<path d="M15.2948 7.21026C15.2917 6.9681 15.6003 6.86352 15.7451 7.05765L21.3119 14.5209C21.3766 14.6077 21.4899 14.6429 21.5925 14.6082L30.4106 11.6202C30.64 11.5424 30.8348 11.8036 30.6949 12.0013L25.3172 19.6018C25.2547 19.6903 25.2561 19.8089 25.3209 19.8957L30.8876 27.3589C31.0324 27.5531 30.8442 27.8191 30.613 27.7471L21.7226 24.9813C21.6192 24.9491 21.5068 24.9872 21.4443 25.0756L16.0666 32.6761C15.9267 32.8738 15.6155 32.777 15.6125 32.5349L15.4957 23.225C15.4943 23.1167 15.4234 23.0216 15.32 22.9894L6.42964 20.2236C6.1984 20.1516 6.19431 19.8258 6.42368 19.7481L15.2418 16.7601C15.3444 16.7253 15.4129 16.6285 15.4116 16.5202L15.2948 7.21026Z" fill="#750021"/>
<path d="M11.4171 9.38572C11.335 9.15789 11.5924 8.95806 11.7927 9.09409L19.4958 14.3239C19.5854 14.3847 19.704 14.381 19.7895 14.3145L27.1437 8.6046C27.335 8.45608 27.6046 8.63911 27.5372 8.87171L24.9437 17.8138C24.9135 17.9179 24.9538 18.0295 25.0434 18.0903L32.7464 23.3201C32.9468 23.4562 32.856 23.7691 32.614 23.7768L23.3081 24.0736C23.1998 24.077 23.1061 24.1498 23.0759 24.2538L20.4824 33.1959C20.415 33.4285 20.0893 33.4389 20.0072 33.2111L16.8493 24.4523C16.8125 24.3505 16.7144 24.2838 16.6061 24.2873L7.30023 24.584C7.05817 24.5917 6.94765 24.2852 7.13894 24.1366L14.4932 18.4267C14.5787 18.3603 14.6118 18.2463 14.575 18.1445L11.4171 9.38572Z" fill="#750021"/>
<path d="M8.74224 12.2865C8.59727 12.0925 8.78525 11.8264 9.01656 11.8981L17.9093 14.6562C18.0127 14.6883 18.1251 14.6501 18.1876 14.5617L23.5587 6.95649C23.6984 6.75867 24.0096 6.8552 24.0129 7.09736L24.1377 16.4072C24.1392 16.5155 24.2102 16.6105 24.3137 16.6426L33.2064 19.4007C33.4377 19.4725 33.4421 19.7983 33.2128 19.8762L24.3972 22.8718C24.2947 22.9067 24.2262 23.0036 24.2277 23.1119L24.3525 32.4217C24.3558 32.6638 24.0473 32.7687 23.9023 32.5747L18.3291 25.1163C18.2643 25.0295 18.151 24.9944 18.0484 25.0292L9.23286 28.0249C9.00356 28.1028 8.80851 27.8418 8.94822 27.6439L14.3194 20.0388C14.3818 19.9503 14.3802 19.8317 14.3154 19.7449L8.74224 12.2865Z" fill="#750021"/>
<path d="M14.6357 21.4333L17.9613 24L25.6357 17" stroke="#F8F2EC" stroke-width="2"/>
</svg>
